<svg width="32768" height="8638" viewBox="0 0 32768 8638" fill="none" xmlns="http://www.w3.org/2000/svg">
<path d="M3036.92 3287.08C3018.47 3199.42 3073.82 3111.77 3143.02 3074.86C3793.49 2899.55 4425.51 2774.99 5075.97 2701.18C5145.17 2682.73 5214.37 2738.09 5251.28 2807.29C5302.02 2968.75 5338.93 3056.41 5408.13 3231.72C5426.58 3300.92 5389.68 3388.57 5302.02 3388.57C4633.1 3494.68 3982.63 3637.69 3332.17 3831.45C3244.51 3849.9 3175.32 3813 3156.86 3743.8C3110.73 3554.65 3092.28 3467 3036.92 3287.08ZM5800.25 3836.06C5781.8 3766.86 5712.6 3711.5 5643.4 3711.5C4605.42 3854.52 3604.35 4099.02 2654.02 4523.45C2584.82 4560.36 2529.46 4648.01 2547.91 4717.21C2584.82 4910.97 2598.66 5017.08 2654.02 5210.84C2654.02 5298.49 2741.67 5335.4 2810.87 5298.49C3779.65 4855.61 4817.63 4574.2 5851 4394.28C5920.2 4394.28 5957.11 4306.62 5938.65 4232.81C5887.91 4085.18 5851 3997.53 5800.25 3836.06ZM5800.25 4934.04C5763.35 4864.84 5694.15 4809.48 5624.95 4809.48C4974.48 4952.49 4360.92 5127.8 3724.29 5340.01C3655.09 5376.92 3599.73 5446.12 3618.19 5533.77C3668.93 5709.08 3687.39 5801.35 3742.75 5976.66C3779.65 6064.31 3867.3 6119.67 3954.95 6082.76C4586.97 5852.09 5218.99 5658.33 5855.61 5496.87C5924.81 5496.87 5943.27 5427.67 5924.81 5335.4C5869.45 5183.16 5851 5090.89 5800.25 4934.04ZM8402.13 4066.73C8646.63 3979.08 8771.19 3799.16 8771.19 3536.2C8771.19 3074.86 8332.93 2811.9 7770.11 2811.9C7470.25 2811.9 7207.3 2848.81 6875.14 2899.55V5607.59H7894.67C8457.49 5607.59 8932.65 5270.81 8932.65 4795.64C8928.04 4421.96 8771.19 4191.29 8402.13 4066.73ZM8157.63 3642.3C8157.63 3817.61 8033.07 3923.72 7788.57 3923.72H7507.16V3356.28C7594.81 3356.28 7682.46 3337.82 7770.11 3337.82C8033.07 3342.44 8157.63 3467 8157.63 3642.3ZM7839.31 5077.05H7507.16V4440.41H7839.31C8120.72 4440.41 8259.12 4528.06 8259.12 4758.73C8259.12 4952.49 8102.27 5077.05 7839.31 5077.05ZM10053.7 3485.45C9790.72 3485.45 9527.76 3540.81 9278.65 3646.92L9329.39 3789.93C9380.14 3983.69 9472.4 4039.05 9573.89 4039.05C9610.8 4039.05 9924.5 3983.69 10049.1 3983.69C10279.7 3983.69 10381.2 4052.89 10399.7 4302.01C9712.29 4338.92 9135.63 4477.32 9135.63 5081.67C9135.63 5469.19 9486.24 5649.11 9929.11 5649.11C10422.7 5649.11 10773.3 5561.45 11004 5381.53V4283.56C11004 3697.66 10653.4 3485.45 10053.7 3485.45ZM10035.2 5164.71C9841.46 5164.71 9735.36 5109.35 9735.36 4970.95C9735.36 4777.19 9998.31 4703.37 10279.7 4703.37H10404.3V5058.6C10335.1 5109.35 10196.7 5164.71 10035.2 5164.71ZM12411 3467C12078.9 3467 11636 3573.1 11391.5 3748.41L11373.1 5607.59H12005.1V4029.82C12074.3 4011.37 12180.4 3992.92 12268 3992.92C12512.5 3992.92 12674 4117.48 12674 4329.69V5602.97H13287.6V4122.09C13287.6 3711.5 12886.2 3467 12411 3467ZM14625.4 5639.88C14800.7 5639.88 15045.2 5602.97 15275.9 5496.87L15151.3 5003.24C15012.9 5058.6 14869.9 5072.44 14763.8 5072.44C14376.3 5072.44 14219.4 4878.68 14219.4 4541.91C14219.4 4205.13 14394.7 3992.92 14796.1 3992.92C14865.3 3992.92 14989.8 4011.37 15059 4029.82C15146.7 3923.72 15234.4 3748.41 15271.3 3536.2C15059 3480.84 14902.2 3467 14708.4 3467C14058 3467 13545.9 3854.52 13545.9 4583.42C13555.1 5252.36 13974.9 5639.88 14625.4 5639.88ZM16470.7 5639.88C17121.2 5639.88 17559.4 5215.45 17559.4 4541.91C17559.4 3905.26 17139.6 3462.38 16470.7 3462.38C15838.7 3462.38 15382 3886.81 15382 4541.91C15382 5215.45 15820.2 5639.88 16470.7 5639.88ZM16470.7 5090.89C16189.3 5090.89 16014 4915.59 16014 4541.91C16014 4205.13 16189.3 4011.37 16470.7 4011.37C16770.6 4011.37 16927.4 4205.13 16927.4 4541.91C16927.4 4915.59 16770.6 5090.89 16470.7 5090.89ZM17914.6 5607.59H18532.8V2724.25C18371.4 2724.25 18057.7 2811.9 17914.6 2918.01V5607.59ZM19972.2 5639.88C20622.6 5639.88 21047 5215.45 21047 4541.91C21047 3905.26 20627.2 3462.38 19972.2 3462.38C19340.1 3462.38 18883.4 3886.81 18883.4 4541.91C18883.4 5215.45 19303.2 5639.88 19972.2 5639.88ZM19972.2 5090.89C19690.7 5090.89 19515.4 4915.59 19515.4 4541.91C19515.4 4205.13 19690.7 4011.37 19972.2 4011.37C20253.6 4011.37 20428.9 4205.13 20428.9 4541.91C20428.9 4915.59 20253.6 5090.89 19972.2 5090.89ZM23736.6 3467C23487.5 3467 23192.2 3554.65 22980 3697.66C22818.5 3554.65 22592.5 3467 22329.5 3467C22011.2 3467 21628.3 3573.1 21365.4 3748.41V5607.59H21997.4V4029.82C22066.6 4011.37 22154.2 3992.92 22260.3 3992.92C22504.8 3992.92 22647.8 4117.48 22647.8 4329.69V5602.97H23266V4366.6C23266 4260.49 23247.6 4154.38 23210.7 4066.73C23316.8 4029.82 23422.9 3997.53 23547.4 3997.53C23791.9 3997.53 23934.9 4122.09 23934.9 4334.3V5607.59H24553.1V4122.09C24543.9 3711.5 24193.3 3467 23736.6 3467ZM26177 3467C25983.2 3467 25775.6 3554.65 25600.3 3716.12V2724.25C25438.9 2724.25 25106.7 2811.9 24968.3 2918.01V5483.03C25180.5 5570.68 25531.1 5644.49 25881.7 5644.49C26601.4 5644.49 27062.7 5201.61 27062.7 4440.41C27058.1 3909.88 26795.2 3467 26177 3467ZM25914 5146.25C25807.9 5146.25 25701.8 5127.8 25595.7 5109.35V4066.73C25683.4 4029.82 25789.5 3997.53 25914 3997.53C26232.3 3997.53 26439.9 4140.54 26439.9 4528.06C26444.6 4864.84 26283.1 5146.25 25914 5146.25ZM27727 3180.97C27902.3 3180.97 28045.3 3037.96 28045.3 2862.65C28045.3 2687.34 27907 2544.33 27727 2544.33C27551.7 2544.33 27390.3 2687.34 27390.3 2862.65C27390.3 3042.57 27551.7 3180.97 27727 3180.97ZM27408.7 5607.59H28022.3V3536.2C27953.1 3480.84 27847 3467 27722.4 3467C27597.9 3467 27491.8 3485.45 27404.1 3536.2V5607.59H27408.7ZM29272.5 3485.45C28991.1 3485.45 28746.6 3540.81 28479 3646.92L28534.4 3789.93C28603.6 3983.69 28672.8 4039.05 28778.9 4039.05C28815.8 4039.05 29129.5 3983.69 29254 3983.69C29484.7 3983.69 29590.8 4052.89 29604.6 4302.01C28921.9 4338.92 28340.6 4477.32 28340.6 5081.67C28340.6 5469.19 28709.7 5649.11 29134.1 5649.11C29627.7 5649.11 29992.1 5561.45 30222.8 5381.53V4283.56C30222.8 3697.66 29872.2 3485.45 29272.5 3485.45ZM29254 5164.71C29041.8 5164.71 28935.7 5109.35 28935.7 4970.95C28935.7 4777.19 29198.7 4703.37 29480.1 4703.37H29600V5058.6C29535.4 5109.35 29415.5 5164.71 29254 5164.71Z" fill="white"/>
</svg>
