<svg width="32768" height="8638" viewBox="0 0 32768 8638" fill="none" xmlns="http://www.w3.org/2000/svg">
    <path fill-rule="evenodd" clip-rule="evenodd"
          d="M9892.05 1659.3L9888.92 1656.16L7222.86 4318.97L8043.98 5140.06L11524.6 1659.3H9892.05ZM8455.95 5545.74L9892.05 4112.83H11527.7L10094.4 5546.31L11527.7 6981.79H9894.87H9892.05L8459.08 5548.88L8459.09 5548.87L8455.95 5545.74ZM15513.6 2815.26H13717V5925.11H14081.6V4578.04H15374.9V4230.94H14081.6V3167.38H15513.6V2815.26ZM15893.3 2815.26H16262.4V5922.92H15893.3V2815.26ZM16679.4 5102.46C16679.4 5383.36 16749.6 5601.92 16889.9 5758.14C17030.7 5914.36 17233.7 5992.99 17498.9 5994.03C17648.2 5994.39 17794.9 5955.49 17924.4 5881.25C18045.5 5817.7 18146.3 5721.42 18215.4 5603.38H18232.7V5923.23H18584.5V3709.65H18215.4V4959.61C18215.8 5077.28 18188.2 5193.36 18134.9 5298.25C18083.5 5403.18 18005.8 5492.99 17909.3 5558.9C17811.7 5625.61 17695.8 5660.41 17577.6 5658.52C17415.9 5658.31 17287.3 5609.12 17191.6 5510.97C17095.9 5412.81 17048.1 5257.95 17048.1 5046.38V3709.65H16679.4V5102.46ZM19666.2 5948C19594.5 5921.71 19528.7 5881.22 19472.9 5828.95C19416 5774.31 19371.6 5707.93 19342.9 5634.41C19311.7 5548.01 19296.9 5456.52 19299.4 5364.69V4043.93H18913.1V3709.67H19299.4V3084.69H19668.1V3709.67H20206.3V4043.93H19668.1V5277.28C19668.1 5402.59 19691.3 5493.13 19737.7 5552.34C19792.6 5617.5 19872.2 5650.08 19976.4 5650.08C20062.8 5649.3 20147.3 5623.64 20219.5 5576.14V5936.41C20177.2 5956.14 20132.7 5970.76 20087 5979.95C20030.4 5989.42 19973 5993.72 19915.6 5992.8C19830.4 5993.29 19745.9 5978.1 19666.2 5948ZM20998.3 5828.95C21054 5881.15 21119.7 5921.64 21191.3 5948C21271 5977.99 21355.5 5993.17 21440.7 5992.8C21498.2 5993.72 21555.6 5989.42 21612.4 5979.95C21658 5970.81 21702.4 5956.19 21744.6 5936.41V5576.14C21672.5 5623.66 21588.1 5649.33 21501.8 5650.08C21397.6 5650.08 21317.9 5617.5 21262.7 5552.34C21216.7 5493.13 21193.5 5402.59 21193.5 5277.28V4043.93H21731.7V3709.67H21193.5V3084.69H20824.8V3709.67H20438.5V4043.93H20824.8V5364.69C20822.2 5456.5 20836.9 5547.99 20868 5634.41C20896.8 5707.94 20941.3 5774.33 20998.3 5828.95ZM22439.1 5840.52C22272.1 5739.83 22136.2 5594.86 22046.6 5421.68C21950.6 5235.92 21902 5029.28 21905.3 4820.2C21903.2 4615.9 21948.5 4413.88 22037.5 4229.99C22121.7 4055.49 22251.6 3907.06 22413.4 3800.5C22581.2 3692.04 22777.6 3636.18 22977.4 3640.1C23175.1 3635.14 23370.4 3685.37 23541.3 3785.15C23699.7 3881.05 23827.2 4020.6 23908.4 4187.08C23996.5 4369.73 24040.3 4570.49 24036.6 4773.21C24037.2 4811.22 24032.8 4849.14 24023.4 4885.99H22274.3C22277.8 5035.9 22319.8 5182.4 22396.2 5311.41C22462.5 5421.72 22557.7 5511.76 22671.6 5571.74C22779.2 5628.8 22899.1 5658.6 23020.9 5658.51C23304.5 5658.51 23523 5525.48 23676.3 5259.41L23989.6 5411.34C23899.7 5584.88 23765.7 5731.71 23601.1 5837.08C23437.6 5941.5 23240.1 5993.71 23008.7 5993.71C22808.3 5996.34 22611.1 5943.31 22439.1 5840.52ZM23645.6 4581.8C23638.5 4484.84 23611.9 4390.32 23567.3 4303.93C23517 4207.21 23441.1 4126.16 23348 4069.6C23234.5 4002.27 23103.9 3969.1 22972 3974.05C22809 3970.02 22650.8 4030.08 22531.5 4141.34C22407.9 4259.26 22325 4413.56 22295 4581.8H23645.6ZM24627.1 3709.65H24275.6V5923.23H24644.3V4683.3C24643.5 4567.42 24671.1 4453.11 24724.5 4350.3C24774 4251.99 24847.3 4167.58 24937.6 4104.69C25024.3 4044.88 25127.3 4013.07 25232.7 4013.53C25341.1 4011.72 25448.4 4035.44 25546 4082.76V3687.73C25463.4 3653.98 25374.8 3637.66 25285.6 3639.79C25146.2 3640.87 25010.3 3683.28 24895 3761.66C24779.7 3831.95 24691.4 3938.98 24644.3 4065.53H24627.1V3709.65Z"
          fill="white"/>
</svg>
