<svg width="9536" height="3232" viewBox="0 0 9536 3232" fill="none" xmlns="http://www.w3.org/2000/svg">
<path opacity="0.72" d="M2575.67 2515.12H2574.72L2090.63 2031.05L2366.96 1753.67L3127.28 2515.12H2575.67Z" fill="white"/>
<path opacity="0.72" d="M2574.71 1545.92L2089.57 2029.99L2366.96 2306.31L3127.28 1545.92H2574.71Z" fill="white"/>
<path opacity="0.72" d="M2574.71 717.058L2573.66 716L1673 1615.56L1950.39 1892.94L3126.22 717.058H2574.71Z" fill="white"/>
<path d="M3866.86 1107.57H4473.82V1226.52H3990.05V1585.82H4426.93V1703.08H3990.05V2158.15H3866.86V1107.57Z" fill="white"/>
<path d="M4602.09 1107.57H4726.76V2157.41H4602.09V1107.57Z" fill="white"/>
<path d="M4938.75 2101.74C4891.34 2048.97 4867.63 1975.13 4867.63 1880.24V1409.72H4992.2V1861.29C4992.2 1932.76 5008.36 1985.08 5040.67 2018.24C5072.99 2051.4 5116.45 2068.02 5171.06 2068.09C5211 2068.73 5250.16 2056.97 5283.14 2034.43C5315.73 2012.17 5341.98 1981.83 5359.34 1946.38C5377.36 1910.95 5386.68 1871.73 5386.54 1831.98V1409.72H5511.22V2157.51H5392.36V2049.46H5386.54C5363.2 2089.34 5329.14 2121.86 5288.22 2143.33C5244.48 2168.41 5194.92 2181.55 5144.5 2181.43C5054.89 2181.08 4986.31 2154.51 4938.75 2101.74Z" fill="white"/>
<path d="M5876.66 2165.88C5852.41 2157 5830.2 2143.32 5811.36 2125.66C5792.12 2107.2 5777.14 2084.77 5767.44 2059.94C5756.89 2030.75 5751.9 1999.84 5752.73 1968.82V1522.64H5622.23V1409.72H5752.73V1198.59H5877.3V1409.72H6059.12V1522.64H5877.3V1939.29C5877.3 1981.62 5885.13 2012.21 5900.79 2032.21C5919.35 2054.22 5946.23 2065.23 5981.44 2065.23C6010.65 2064.97 6039.16 2056.3 6063.57 2040.25V2161.96C6049.28 2168.63 6034.25 2173.57 6018.8 2176.67C5999.67 2179.87 5980.3 2181.32 5960.91 2181.01C5932.13 2181.17 5903.58 2176.04 5876.66 2165.88Z" fill="white"/>
<path d="M6391.87 2165.88C6367.66 2156.97 6345.49 2143.29 6326.67 2125.66C6307.41 2107.21 6292.38 2084.78 6282.65 2059.94C6272.14 2030.74 6267.19 1999.84 6268.04 1968.82V1522.64H6137.55V1409.72H6268.04V1198.59H6392.61V1409.72H6574.43V1522.64H6392.61V1939.29C6392.61 1981.62 6400.44 2012.21 6416 2032.21C6434.63 2054.22 6461.54 2065.23 6496.75 2065.23C6525.93 2064.98 6554.41 2056.31 6578.77 2040.25V2161.96C6564.53 2168.64 6549.54 2173.58 6534.11 2176.67C6514.95 2179.87 6495.54 2181.32 6476.11 2181.01C6447.34 2181.14 6418.79 2176.01 6391.87 2165.88Z" fill="white"/>
<path d="M6813.41 2129.57C6756.99 2095.56 6711.09 2046.58 6680.8 1988.08C6648.36 1925.32 6631.96 1855.52 6633.06 1784.88C6632.36 1715.87 6647.65 1647.62 6677.73 1585.5C6706.17 1526.55 6750.06 1476.41 6804.73 1440.41C6861.41 1403.77 6927.75 1384.9 6995.23 1386.22C7062.05 1384.55 7128.02 1401.51 7185.73 1435.22C7239.27 1467.62 7282.34 1514.76 7309.77 1571C7339.51 1632.7 7354.33 1700.53 7353.06 1769.01C7353.27 1781.85 7351.78 1794.66 7348.61 1807.11H6757.74C6758.91 1857.75 6773.09 1907.24 6798.91 1950.83C6821.29 1988.09 6853.47 2018.51 6891.94 2038.77C6928.28 2058.05 6968.8 2068.11 7009.94 2068.09C7105.76 2068.09 7179.56 2023.14 7231.35 1933.26L7337.18 1984.59C7306.82 2043.21 7261.56 2092.81 7205.95 2128.41C7150.7 2163.69 7083.99 2181.32 7005.81 2181.32C6938.13 2182.21 6871.52 2164.3 6813.41 2129.57ZM7220.98 1704.35C7218.58 1671.59 7209.58 1639.66 7194.52 1610.48C7177.54 1577.8 7151.91 1550.42 7120.43 1531.31C7082.08 1508.57 7037.99 1497.36 6993.43 1499.04C6938.35 1497.67 6884.92 1517.96 6844.63 1555.55C6802.84 1595.39 6774.85 1647.51 6764.72 1704.35H7220.98Z" fill="white"/>
<path d="M7433.71 1409.72H7552.56V1529.94H7558.38C7574.28 1487.19 7604.1 1451.03 7643.05 1427.28C7682 1400.81 7727.93 1386.48 7775.02 1386.12C7805.14 1385.39 7835.09 1390.91 7862.97 1402.31V1535.76C7830.02 1519.77 7793.76 1511.76 7757.14 1512.37C7721.54 1512.22 7686.75 1522.96 7657.44 1543.17C7626.93 1564.41 7602.19 1592.93 7585.47 1626.14C7567.41 1660.87 7558.11 1699.49 7558.38 1738.64V2157.51H7433.81V1409.72H7433.71Z" fill="white"/>
</svg>
