<svg width="9536" height="3232" viewBox="0 0 9536 3232" fill="none" xmlns="http://www.w3.org/2000/svg">
<mask id="mask0_55_32" style="mask-type:luminance" maskUnits="userSpaceOnUse" x="1192" y="942" width="7201" height="1349">
<path d="M8392.73 942H1192V2290.57H8392.73V942Z" fill="white"/>
</mask>
<g mask="url(#mask0_55_32)">
<path d="M2626.74 1468.47L2401.28 1342.71V1090.37L2134.96 942L1909.51 1067.76L1684.05 942L1417.45 1090.37V1343.54L1192 1469.29V1767.14L1417.45 1892.9V2143.31L1684.05 2291.95L1909.51 2166.2L2134.96 2291.95L2401.28 2143.31V1893.45L2626.74 1767.69V1468.47ZM1724.92 1718.6V1515.35L1909.23 1412.49L2093.26 1515.35V1718.6L1909.23 1821.19L1724.92 1718.6ZM1950.37 1137.25L2134.4 1034.66L2318.43 1137.25V1341.61L2134.4 1444.48L1950.37 1341.61V1137.25ZM1499.46 1137.25L1683.77 1034.66L1867.8 1137.25V1341.61L1683.77 1444.48L1499.46 1341.61V1137.25ZM1274.01 1515.35L1458.04 1412.49L1642.35 1515.35V1718.6L1457.19 1821.75L1274.01 1719.71V1515.35ZM1684.05 2198.47L1499.74 2095.88V1892.34L1684.05 1789.75L1868.08 1892.34V2095.88L1684.05 2198.47ZM2134.96 2198.47L1950.93 2095.88V1892.34L2134.96 1789.75L2318.99 1892.34V2095.88L2134.96 2198.47ZM2544.73 1720.26L2361.55 1822.3L2176.39 1719.16V1515.9L2360.42 1413.03L2544.73 1515.9V1720.26Z" fill="white"/>
<path d="M3509.42 1285.34V1959.35H3424.88V1285.34H3509.42Z" fill="white"/>
<path d="M4222.12 1285.34V1959.35H4141.52L3766.14 1430.12H3759.37V1959.35H3674.83V1285.34H3755.71L4132.22 1815.95H4138.98V1285.34H4222.12Z" fill="white"/>
<path d="M4417.12 1285.34L4621.44 1852.62H4629.61L4833.93 1285.34H4921.29L4667.65 1959.35H4582.54L4328.91 1285.34H4417.12Z" fill="white"/>
<path d="M5028.95 1959.35V1285.34H5444.63V1357.87H5112.36V1585.67H5422.37V1657.92H5112.36V1886.82H5450.55V1959.35H5028.95Z" fill="white"/>
<path d="M5595.11 1959.36V1285.35H5827.89C5873.67 1283.87 5919.12 1293.34 5960.36 1312.93C5993.05 1328.99 6019.84 1354.63 6037.02 1386.29C6054.02 1419.27 6062.51 1455.81 6061.82 1492.74C6062.56 1529.41 6054.02 1565.69 6037.02 1598.37C6019.75 1629.57 5993.09 1654.8 5960.64 1670.62C5919.59 1689.37 5874.55 1698.26 5829.3 1696.54H5641.05V1622.91H5826.48C5857 1624.1 5887.36 1618.74 5915.55 1607.19C5936.58 1598.02 5953.86 1582.18 5964.58 1562.24C5975.26 1540.59 5980.46 1516.76 5979.77 1492.74C5980.42 1468.25 5975.08 1443.96 5964.31 1421.86C5953.67 1401.29 5936.31 1384.79 5914.99 1374.98C5886.71 1362.81 5855.93 1357.15 5825.07 1358.43H5678.53V1959.92L5595.11 1959.36ZM5919.5 1656L6088.56 1959.36H5991.61L5824.79 1656H5919.5Z" fill="white"/>
<path d="M6162.71 1357.87V1285.34H6679.29V1357.87H6462.86V1959.35H6378.3V1357.87H6162.71Z" fill="white"/>
<path d="M6755.96 1959.35H6668.57L6922.25 1285.34H7008.2L7261.82 1959.35H7174.15L6968.45 1392.07H6963.11L6755.96 1959.35ZM6788.38 1695.98H7140.63V1768.51H6788.38V1695.98Z" fill="white"/>
<path d="M7744.57 1453.84C7742.94 1438.1 7737.65 1422.93 7729.1 1409.5C7720.56 1396.07 7708.95 1384.73 7695.25 1376.35C7663.72 1357.1 7626.99 1347.5 7589.85 1348.77C7562.45 1348.16 7535.19 1353.04 7509.79 1363.11C7488.85 1371.52 7470.6 1385.22 7456.81 1402.82C7444.27 1419.51 7437.68 1439.75 7437.96 1460.46C7437.4 1476.87 7442.05 1493.04 7451.19 1506.79C7460.11 1519.69 7471.76 1530.6 7485.28 1538.79C7499.11 1547.05 7513.74 1553.97 7528.97 1559.47C7544.2 1564.71 7557.16 1569.12 7570.95 1572.43L7640.27 1591.73C7660.66 1596.89 7680.72 1603.24 7700.31 1610.76C7722.93 1619.04 7744.33 1630.16 7764.02 1643.85C7784.5 1657.94 7801.59 1676.19 7814.17 1697.36C7828.1 1721.75 7834.93 1749.41 7833.91 1777.33C7834.65 1812.15 7824.85 1846.41 7805.72 1875.79C7784.87 1906.55 7755.57 1930.93 7721.16 1946.11C7678.68 1964.41 7632.57 1973.27 7586.18 1972.04C7542.44 1973.13 7498.93 1965.15 7458.53 1948.6C7424.82 1934.79 7395.61 1912.29 7373.97 1883.51C7353.22 1855.02 7341.1 1821.37 7339.01 1786.44H7425.28C7426.63 1809.66 7435.82 1831.79 7451.47 1849.31C7467.45 1866.36 7487.64 1879.09 7510.07 1886.27C7534.68 1894.46 7560.5 1898.56 7586.46 1898.4C7615.9 1898.79 7645.06 1893.54 7672.41 1882.96C7695.9 1874.07 7716.57 1859.33 7732.45 1840.22C7747.35 1822.01 7755.2 1799.27 7754.74 1775.96C7755.71 1755.86 7748.84 1736.14 7735.56 1720.8C7721.58 1705.81 7704.35 1694.11 7685.08 1686.61C7663.12 1677.39 7640.51 1669.65 7617.48 1663.44L7532.92 1639.72C7485.74 1628.01 7442 1605.84 7404.99 1574.91C7389.44 1560.95 7377.18 1543.86 7369.05 1524.81C7360.92 1505.77 7357.12 1485.22 7357.91 1464.6C7357.12 1429.11 7368.21 1394.34 7389.48 1365.59C7411.21 1336.71 7440.37 1313.97 7474.04 1299.68C7511.6 1283.73 7552.23 1275.74 7593.24 1276.24C7633.91 1275.5 7674.31 1283.41 7711.6 1299.4C7744.15 1313.29 7772.47 1335.13 7793.88 1362.83C7814.03 1389.15 7825.27 1420.97 7826.01 1453.84H7744.57Z" fill="white"/>
<path d="M7971.66 1959.35V1285.34H8387.34V1357.87H8055.1V1585.67H8365.1V1657.92H8055.1V1886.82H8393.29V1959.35H7971.66Z" fill="white"/>
</g>
</svg>
