<svg width="32768" height="8638" viewBox="0 0 32768 8638" fill="none" xmlns="http://www.w3.org/2000/svg">
<mask id="mask0_20_88" style="mask-type:luminance" maskUnits="userSpaceOnUse" x="3125" y="1835" width="26519" height="4967">
<path d="M29643.3 1835.54H3125.12V6801.94H29643.3V1835.54Z" fill="white"/>
</mask>
<g mask="url(#mask0_20_88)">
<path d="M8408.83 3774.36L7578.55 3311.24V2381.94L6597.77 1835.54L5767.49 2298.66L4937.2 1835.54L3955.4 2381.94V3314.29L3125.12 3777.41V4874.28L3955.4 5337.41V6259.6L4937.2 6807.02L5767.49 6343.89L6597.77 6807.02L7578.55 6259.6V5339.45L8408.83 4876.32V3774.36ZM5087.7 4695.54V3947.02L5766.45 3568.2L6444.18 3947.02V4695.54L5766.45 5073.35L5087.7 4695.54ZM5917.98 2554.6L6595.7 2176.79L7273.41 2554.6V3307.18L6595.7 3686.01L5917.98 3307.18V2554.6ZM4257.42 2554.6L4936.17 2176.79L5613.9 2554.6V3307.18L4936.17 3686.01L4257.42 3307.18V2554.6ZM3427.13 3947.02L4104.85 3568.2L4783.61 3947.02V4695.54L4101.74 5075.38L3427.13 4699.61V3947.02ZM4937.2 6462.73L4258.45 6084.92V5335.38L4937.2 4957.57L5614.92 5335.38V6084.92L4937.2 6462.73ZM6597.77 6462.73L5920.05 6084.92V5335.38L6597.77 4957.57L7275.5 5335.38V6084.92L6597.77 6462.73ZM8106.82 4701.63L7432.21 5077.42L6750.34 4697.57V3949.05L7428.05 3570.22L8106.82 3949.05V4701.63Z" fill="white"/>
<path d="M11659.5 3099.96V5582.15H11348.2V3099.96H11659.5Z" fill="white"/>
<path d="M14284.1 3099.96V5582.15H13987.3L12604.9 3633.16H12580V5582.15H12268.6V3099.96H12566.5L13953.1 5054.03H13978V3099.96H14284.1Z" fill="white"/>
<path d="M15002.2 3099.96L15754.7 5189.1H15784.8L16537.2 3099.96H16859L15924.9 5582.15H15611.5L14677.4 3099.96H15002.2Z" fill="white"/>
<path d="M17255.4 5582.15V3099.96H18786.3V3367.07H17562.6V4205.98H18704.3V4472.07H17562.6V5315.04H18808.1V5582.15H17255.4Z" fill="white"/>
<path d="M19340.5 5582.2V3100.02H20197.7C20366.3 3094.57 20533.7 3129.43 20685.6 3201.58C20806 3260.73 20904.6 3355.16 20967.9 3471.73C21030.5 3593.18 21061.8 3727.75 21059.2 3863.76C21062 3998.81 21030.5 4132.43 20967.9 4252.75C20904.3 4367.66 20806.1 4460.59 20686.6 4518.84C20535.4 4587.91 20369.6 4620.64 20202.9 4614.32H19509.6V4343.14H20192.5C20304.9 4347.53 20416.8 4327.78 20520.6 4285.25C20598 4251.47 20661.6 4193.16 20701.1 4119.7C20740.5 4039.99 20759.6 3952.23 20757.1 3863.76C20759.4 3773.57 20739.8 3684.13 20700.1 3602.74C20660.9 3526.99 20597 3466.23 20518.5 3430.09C20414.4 3385.28 20301 3364.43 20187.3 3369.16H19647.7V5584.23L19340.5 5582.2ZM20535.1 4465.02L21157.7 5582.2H20800.7L20186.3 4465.02H20535.1Z" fill="white"/>
<path d="M21430.8 3367.07V3099.96H23333.2V3367.07H22536.2V5582.15H22224.8V3367.07H21430.8Z" fill="white"/>
<path d="M23615.6 5582.15H23293.7L24227.9 3099.96H24544.5L25478.5 5582.15H25155.6L24398.1 3493.01H24378.4L23615.6 5582.15ZM23734.9 4612.23H25032.2V4879.34H23734.9V4612.23Z" fill="white"/>
<path d="M27256.2 3720.49C27250.3 3662.51 27230.8 3606.66 27199.3 3557.18C27167.8 3507.72 27125.1 3465.95 27074.6 3435.1C26958.5 3364.21 26823.3 3328.85 26686.5 3333.54C26585.6 3331.29 26485.2 3349.26 26391.6 3386.35C26314.5 3417.31 26247.3 3467.78 26196.5 3532.6C26150.4 3594.06 26126.1 3668.58 26127.1 3744.86C26125.1 3805.28 26142.2 3864.84 26175.8 3915.5C26208.7 3963.01 26251.6 4003.16 26301.4 4033.31C26352.3 4063.75 26406.2 4089.25 26462.3 4109.48C26518.4 4128.77 26566.1 4145.02 26616.9 4157.21L26872.2 4228.3C26947.2 4247.29 27021.1 4270.68 27093.3 4298.38C27176.6 4328.86 27255.4 4369.82 27327.9 4420.25C27403.3 4472.12 27466.2 4539.33 27512.6 4617.29C27563.9 4707.11 27589 4808.99 27585.3 4911.82C27588 5040.05 27551.9 5166.2 27481.5 5274.39C27404.7 5387.69 27296.8 5477.45 27170.1 5533.38C27013.6 5600.77 26843.8 5633.39 26672.9 5628.85C26511.9 5632.89 26351.6 5603.47 26202.9 5542.52C26078.7 5491.66 25971.1 5408.82 25891.5 5302.83C25815 5197.93 25770.4 5073.99 25762.7 4945.34H26080.4C26085.4 5030.88 26119.2 5112.37 26176.9 5176.89C26235.7 5239.69 26310.1 5286.57 26392.7 5312.99C26483.3 5343.17 26578.4 5358.27 26674 5357.67C26782.4 5359.11 26889.8 5339.79 26990.5 5300.81C27077 5268.06 27153.1 5213.8 27211.6 5143.39C27266.5 5076.34 27295.4 4992.59 27293.7 4906.74C27297.3 4832.72 27272 4760.13 27223.1 4703.62C27171.6 4648.4 27108.2 4605.34 27037.2 4577.69C26956.3 4543.76 26873 4515.25 26788.2 4492.37L26476.8 4405.03C26303.1 4361.9 26142 4280.24 26005.7 4166.36C25948.4 4114.95 25903.3 4052 25873.3 3981.85C25843.4 3911.72 25829.4 3836.06 25832.3 3760.1C25829.4 3629.41 25870.3 3501.37 25948.6 3395.49C26028.6 3289.14 26136 3205.4 26260 3152.76C26398.3 3094 26547.9 3064.58 26698.9 3066.43C26848.7 3063.72 26997.5 3092.83 27134.8 3151.74C27254.7 3202.87 27359 3283.32 27437.9 3385.34C27512.1 3482.26 27553.5 3599.44 27556.2 3720.49H27256.2Z" fill="white"/>
<path d="M28092.6 5582.15V3099.96H29623.5V3367.07H28399.9V4205.98H29541.5V4472.07H28399.9V5315.04H29645.3V5582.15H28092.6Z" fill="white"/>
</g>
</svg>
