<svg width="378" height="370" viewBox="0 0 378 370" fill="none" xmlns="http://www.w3.org/2000/svg">
<g opacity="0.9" clip-path="url(#clip0_5714_9965)">
<path fill-rule="evenodd" clip-rule="evenodd" d="M182.354 237.939C186.109 240.153 187.372 245.016 185.174 248.801C183.564 251.572 180.963 256.683 178.666 262.594C176.34 268.578 174.533 274.856 174.133 280.116C173.889 283.342 174.787 287.317 176.524 291.746C177.579 294.437 178.813 296.985 180.03 299.359C182.116 300.106 183.846 301.724 184.702 303.866C187.813 303.933 190.72 305.866 191.898 308.975C193.449 313.071 191.412 317.66 187.346 319.223C184.794 320.205 181.429 321.569 177.542 323.143C176.64 323.508 175.71 323.885 174.756 324.271C169.74 326.3 164.13 328.551 158.689 330.611C153.275 332.662 147.886 334.579 143.334 335.911C141.065 336.575 138.859 337.136 136.881 337.486C135.132 337.796 132.697 338.111 130.379 337.683C126.117 336.897 123.287 332.792 124.037 328.499C120.341 329.128 116.732 329.52 113.9 329.262C109.566 328.87 106.369 325.01 106.76 320.643C106.816 320.007 106.946 319.394 107.141 318.814C106.634 318.769 106.045 318.695 105.432 318.564C104.803 318.429 103.267 318.061 101.765 316.943C98.2643 314.338 97.5221 309.367 100.107 305.84C102.182 303.01 105.769 301.97 108.913 303.015C109.321 303.025 109.911 303.021 110.733 302.996C111.221 302.982 111.8 302.959 112.435 302.933C114.196 302.863 116.388 302.775 118.268 302.806C120.679 302.844 129.926 302.239 140.512 301.38C148.459 300.735 156.716 299.985 162.592 299.358C162.345 298.773 162.103 298.18 161.868 297.582C159.78 292.258 157.909 285.643 158.421 278.904C158.993 271.379 161.421 263.419 163.993 256.802C166.595 250.111 169.556 244.255 171.574 240.781C173.772 236.996 178.598 235.724 182.354 237.939Z" fill="url(#paint0_linear_5714_9965)"/>
<path fill-rule="evenodd" clip-rule="evenodd" d="M217.731 238.505C213.908 240.599 212.492 245.419 214.57 249.271C216.092 252.093 218.531 257.285 220.64 263.266C222.777 269.322 224.385 275.654 224.619 280.925C224.762 284.156 223.739 288.1 221.863 292.472C220.724 295.127 219.411 297.636 218.119 299.969C216.012 300.649 214.231 302.211 213.307 304.325C210.196 304.293 207.23 306.13 205.954 309.201C204.274 313.245 206.167 317.896 210.181 319.589C212.701 320.653 216.022 322.123 219.857 323.821C220.747 324.215 221.665 324.621 222.606 325.037C227.556 327.226 233.092 329.655 238.465 331.889C243.812 334.111 249.138 336.2 253.645 337.676C255.892 338.412 258.079 339.044 260.045 339.458C261.784 339.823 264.208 340.215 266.538 339.862C270.823 339.213 273.78 335.2 273.166 330.886C276.841 331.633 280.436 332.139 283.273 331.973C287.618 331.718 290.935 327.964 290.683 323.586C290.645 322.948 290.535 322.332 290.359 321.745C290.866 321.717 291.458 321.662 292.075 321.55C292.707 321.435 294.255 321.117 295.791 320.048C299.372 317.556 300.27 312.611 297.798 309.003C295.813 306.108 292.261 304.953 289.085 305.898C288.677 305.895 288.087 305.872 287.267 305.821C286.779 305.791 286.201 305.749 285.568 305.703C283.81 305.577 281.621 305.419 279.742 305.389C277.33 305.351 268.107 304.45 257.554 303.253C249.631 302.354 241.401 301.341 235.548 300.526C235.814 299.949 236.074 299.364 236.328 298.774C238.582 293.519 240.661 286.968 240.362 280.216C240.028 272.676 237.851 264.643 235.489 257.947C233.1 251.175 230.324 245.228 228.417 241.691C226.339 237.838 221.555 236.412 217.731 238.505ZM289.521 305.889C289.521 305.889 289.518 305.889 289.512 305.889L289.521 305.889Z" fill="url(#paint1_linear_5714_9965)"/>
<mask id="mask0_5714_9965" style="mask-type:luminance" maskUnits="userSpaceOnUse" x="170" y="27" width="93" height="93">
<path d="M170.164 36.5075L253.389 27.1333L262.607 110.221L179.381 119.595L170.164 36.5075Z" fill="white"/>
</mask>
<g mask="url(#mask0_5714_9965)">
<path d="M243.244 64.301C249.557 68.902 248.362 81.4271 240.575 92.2767C232.788 103.126 221.357 108.192 215.043 103.591C208.729 98.9898 209.924 86.4646 217.712 75.6151C225.499 64.7655 236.93 59.7 243.244 64.301Z" fill="url(#paint2_radial_5714_9965)"/>
<path d="M218.364 41.0982C229.182 44.3795 233.449 62.1094 227.895 80.6991C222.341 99.2887 209.069 111.698 198.252 108.417C187.434 105.136 183.167 87.4058 188.721 68.8162C194.275 50.2266 207.546 37.8168 218.364 41.0982Z" fill="url(#paint3_radial_5714_9965)"/>
</g>
<path d="M71.1833 139.79C73.9499 131.656 90.9143 130.146 109.074 136.417C127.234 142.688 139.713 154.366 136.946 162.5C134.18 170.634 117.215 172.144 99.0553 165.873C80.8954 159.602 68.4166 147.924 71.1833 139.79Z" fill="url(#paint4_radial_5714_9965)"/>
<path d="M219.669 100.854C265.476 112.165 293.531 158.663 282.332 204.711C271.133 250.759 224.92 278.919 179.113 267.608C133.307 256.297 105.251 209.799 116.45 163.751C127.649 117.703 173.862 89.5428 219.669 100.854Z" fill="url(#paint5_radial_5714_9965)"/>
<mask id="mask1_5714_9965" style="mask-type:luminance" maskUnits="userSpaceOnUse" x="243" y="142" width="124" height="125">
<path d="M309.733 266.054L243.562 212.733L299.989 142.554L366.16 195.876L309.733 266.054Z" fill="white"/>
</mask>
<g mask="url(#mask1_5714_9965)">
<path d="M274.615 221.113C268.855 217.243 271.181 203.627 279.811 190.701C288.44 177.774 300.104 170.433 305.864 174.303C311.624 178.173 309.297 191.789 300.668 204.715C292.039 217.642 280.374 224.983 274.615 221.113Z" fill="url(#paint6_radial_5714_9965)"/>
<path d="M273.308 223.063C268.705 216.423 277.014 202.689 291.866 192.388C306.719 182.087 322.491 179.12 327.094 185.761C331.698 192.402 323.389 206.136 308.536 216.436C293.684 226.737 277.911 229.704 273.308 223.063Z" fill="url(#paint7_radial_5714_9965)"/>
<path d="M272.516 226.041C270.995 217.133 285.931 207.21 305.878 203.879C325.824 200.547 343.227 205.069 344.748 213.977C346.269 222.886 331.333 232.808 311.387 236.14C291.44 239.471 274.037 234.95 272.516 226.041Z" fill="url(#paint8_radial_5714_9965)"/>
</g>
<mask id="mask2_5714_9965" style="mask-type:luminance" maskUnits="userSpaceOnUse" x="25" y="135" width="128" height="128">
<path d="M152.463 195.811L95.1896 262.179L25.4322 201.712L82.7047 135.344L152.463 195.811Z" fill="white"/>
</mask>
<g mask="url(#mask2_5714_9965)">
<path d="M121.196 213.762C121.447 220.882 108.701 227.176 92.7264 227.82C76.7519 228.463 63.5983 223.213 63.3472 216.093C63.096 208.973 75.8423 202.679 91.8168 202.035C107.791 201.392 120.945 206.642 121.196 213.762Z" fill="url(#paint9_radial_5714_9965)"/>
<path d="M123.613 213.661C120.864 221.494 104.413 222.881 86.869 216.759C69.3248 210.637 57.3311 199.325 60.0804 191.492C62.8296 183.659 79.2806 182.272 96.8248 188.394C114.369 194.516 126.363 205.828 123.613 213.661Z" fill="url(#paint10_radial_5714_9965)"/>
<path d="M126.569 212.515C120.075 219.161 102.801 212.733 87.9868 198.157C73.1729 183.581 66.4289 166.376 72.9236 159.73C79.4183 153.083 96.6923 159.511 111.506 174.087C126.32 188.664 133.064 205.868 126.569 212.515Z" fill="url(#paint11_radial_5714_9965)"/>
</g>
<path fill-rule="evenodd" clip-rule="evenodd" d="M224.567 215.194C244.875 215.075 261.263 198.12 261.172 177.323C261.08 156.526 244.544 139.763 224.236 139.881C216.109 139.929 208.609 142.673 202.542 147.281C202.551 147.256 202.561 147.232 202.57 147.207C201.643 147.737 200.679 148.539 199.667 149.381C197.548 151.143 195.213 153.086 192.54 153.102C190.997 153.111 189.219 152.218 187.562 151.111C183.353 146.818 177.992 143.859 171.883 142.879C154.995 140.171 138.79 153.62 135.687 172.918C132.584 192.216 143.759 210.056 160.647 212.764C169.975 214.26 179.095 210.827 185.914 204.2C187.725 203.14 189.65 202.3 191.336 202.29C194.386 202.272 197.07 204.186 199.505 205.923C200.657 206.745 201.754 207.527 202.807 208.046C208.914 212.584 216.438 215.241 224.567 215.194Z" fill="url(#paint12_radial_5714_9965)"/>
<g clip-path="url(#clip1_5714_9965)">
<path fill-rule="evenodd" clip-rule="evenodd" d="M177.446 218.469C160.589 218.383 146.997 204.167 147.085 186.717C147.174 169.267 160.911 155.192 177.767 155.278C184.513 155.313 190.737 157.611 195.77 161.473C195.762 161.452 195.754 161.431 195.747 161.411C196.516 161.855 197.315 162.527 198.155 163.233C199.913 164.71 201.85 166.339 204.068 166.35C205.349 166.357 206.826 165.606 208.201 164.677C211.698 161.072 216.15 158.586 221.221 157.759C235.241 155.476 248.684 166.75 251.247 182.941C253.811 199.131 244.524 214.106 230.504 216.39C222.76 217.651 215.192 214.776 209.537 209.22C208.034 208.331 206.437 207.628 205.037 207.621C202.505 207.608 200.276 209.216 198.254 210.674C197.297 211.365 196.387 212.022 195.512 212.457C190.44 216.269 184.193 218.504 177.446 218.469Z" fill="url(#paint13_radial_5714_9965)"/>
<path d="M224.814 169.3C216.25 169.809 209.861 178.918 210.542 189.645C211.224 200.373 218.719 208.656 227.282 208.147C235.845 207.638 242.235 198.529 241.553 187.802C240.872 177.074 233.377 168.791 224.814 169.3Z" fill="#00C885"/>
<path d="M224.955 171.015C217.869 171.437 212.601 179.29 213.19 188.556C213.778 197.822 220 204.992 227.087 204.57C234.174 204.149 239.441 196.296 238.853 187.03C238.264 177.764 232.042 170.594 224.955 171.015Z" fill="black"/>
<path d="M225.459 188.524C223.442 188.416 221.71 190.23 221.592 192.576C221.473 194.921 223.012 196.91 225.029 197.018C227.046 197.126 228.778 195.312 228.896 192.966C229.015 190.621 227.476 188.632 225.459 188.524Z" fill="white"/>
</g>
<path d="M163.193 168.796C171.637 169.298 177.946 178.144 177.284 188.555C176.623 198.965 169.241 206.997 160.797 206.495C152.353 205.993 146.044 197.147 146.706 186.737C147.367 176.326 154.749 168.294 163.193 168.796Z" fill="#00C885"/>
<path d="M163.347 170.463C170.444 170.885 175.711 178.87 175.112 188.299C174.513 197.727 168.274 205.028 161.177 204.606C154.08 204.184 148.812 196.199 149.411 186.771C150.01 177.342 156.249 170.041 163.347 170.463Z" fill="black"/>
<path d="M161.822 188.809C163.739 188.805 165.283 190.658 165.271 192.946C165.259 195.235 163.696 197.093 161.778 197.097C159.861 197.1 158.317 195.248 158.329 192.959C158.341 190.671 159.905 188.813 161.822 188.809Z" fill="white"/>
<mask id="mask3_5714_9965" style="mask-type:luminance" maskUnits="userSpaceOnUse" x="141" y="189" width="80" height="62">
<path d="M141.766 198.85L211.99 189.203L220.939 240.405L150.715 250.051L141.766 198.85Z" fill="white"/>
</mask>
<g mask="url(#mask3_5714_9965)">
<path d="M171.137 246.192L178.457 217.24C182.167 210.609 186.905 202.143 191.456 199.485C197.145 196.164 203.229 195.257 208.412 202.748C213.596 210.239 209.383 221.924 201.642 228.794C194.87 234.804 178.985 243.372 171.137 246.192Z" fill="url(#paint14_radial_5714_9965)"/>
<path d="M173.661 242.984L178.707 218.857C181.365 212.733 184.759 204.915 188.088 201.561C192.249 197.367 196.732 194.89 200.654 199.053C204.577 203.216 201.61 213.323 195.978 220.812C191.05 227.364 179.423 238.537 173.661 242.984Z" fill="url(#paint15_radial_5714_9965)"/>
<path d="M197.742 196.188C204.437 196.289 209.239 200.47 209.727 207.453C210.021 211.642 205.157 213.787 200.74 214.681C196.324 215.574 164.635 219.348 149.343 221.123C162.699 212.553 176.549 195.87 197.742 196.188Z" fill="url(#paint16_radial_5714_9965)"/>
</g>
</g>
<path d="M88.419 334.338C88.5683 330.289 88.918 326.25 89.4668 322.236C91.308 310.032 95.5249 298.324 101.871 287.796C108.217 277.268 116.564 268.131 126.425 260.921L125.155 259.098C115.058 266.483 106.51 275.838 100.009 286.618C93.508 297.398 89.1849 309.385 87.2918 321.881C86.726 326.002 86.3657 330.149 86.2123 334.306L88.419 334.338Z" fill="#1E3C60"/>
<path d="M130.537 264.374C126.806 267.117 122.17 267.069 120.17 264.261C118.17 261.453 119.583 256.968 123.345 254.225C127.108 251.482 131.712 251.53 133.712 254.321C135.712 257.113 134.268 261.631 130.537 264.374Z" fill="#1E3C60"/>
<path d="M349.385 330.786H11.4521V355.618H349.385V330.786Z" fill="#A4BFF5"/>
<path d="M339.519 355.618H21.3188V363.068H339.519V355.618Z" fill="#6E96F2"/>
<defs>
<linearGradient id="paint0_linear_5714_9965" x1="170.901" y1="245.641" x2="169.296" y2="284.892" gradientUnits="userSpaceOnUse">
<stop stop-color="#592500"/>
<stop offset="1" stop-color="#896A54"/>
</linearGradient>
<linearGradient id="paint1_linear_5714_9965" x1="228.935" y1="246.57" x2="229.285" y2="285.853" gradientUnits="userSpaceOnUse">
<stop stop-color="#592500"/>
<stop offset="1" stop-color="#896A54"/>
</linearGradient>
<radialGradient id="paint2_radial_5714_9965" cx="0" cy="0" r="1" gradientTransform="matrix(25.0544 18.2583 -18.1202 25.2453 228.696 74.4361)" gradientUnits="userSpaceOnUse">
<stop stop-color="#2DE9FF"/>
<stop offset="1" stop-color="#02C7FE"/>
</radialGradient>
<radialGradient id="paint3_radial_5714_9965" cx="0" cy="0" r="1" gradientTransform="matrix(42.9282 13.0216 -12.9231 43.2554 203.213 61.9447)" gradientUnits="userSpaceOnUse">
<stop stop-color="#2DE9FF"/>
<stop offset="1" stop-color="#02C7FE"/>
</radialGradient>
<radialGradient id="paint4_radial_5714_9965" cx="0" cy="0" r="1" gradientTransform="matrix(12.5683 -36.9517 36.6722 12.6641 91.8799 153.812)" gradientUnits="userSpaceOnUse">
<stop stop-color="#2DE9FF"/>
<stop offset="1" stop-color="#02C7FE"/>
</radialGradient>
<radialGradient id="paint5_radial_5714_9965" cx="0" cy="0" r="1" gradientTransform="matrix(159.107 39.2876 -38.9904 160.32 187.085 121.262)" gradientUnits="userSpaceOnUse">
<stop stop-color="#C1FFFF"/>
<stop offset="0.630208" stop-color="#9DEAFF"/>
<stop offset="0.836861" stop-color="#7CD7FF"/>
<stop offset="1" stop-color="#2CAAE1"/>
</radialGradient>
<radialGradient id="paint6_radial_5714_9965" cx="0" cy="0" r="1" gradientTransform="matrix(-26.1647 -17.581 17.4259 -26.1034 289.8 207.819)" gradientUnits="userSpaceOnUse">
<stop stop-color="#7AF1FF"/>
<stop offset="1" stop-color="#02C7FE"/>
</radialGradient>
<radialGradient id="paint7_radial_5714_9965" cx="0" cy="0" r="1" gradientTransform="matrix(-20.9115 -30.1675 29.9935 -20.8012 295.429 215.159)" gradientUnits="userSpaceOnUse">
<stop stop-color="#7AF1FF"/>
<stop offset="1" stop-color="#02C7FE"/>
</radialGradient>
<radialGradient id="paint8_radial_5714_9965" cx="0" cy="0" r="1" gradientTransform="matrix(-6.91052 -40.4701 40.2797 -6.7274 298.698 228.599)" gradientUnits="userSpaceOnUse">
<stop stop-color="#2DE9FF"/>
<stop offset="1" stop-color="#02C7FE"/>
</radialGradient>
<radialGradient id="paint9_radial_5714_9965" cx="0" cy="0" r="1" gradientTransform="matrix(1.14103 32.3452 -32.259 1.29958 100.959 209.185)" gradientUnits="userSpaceOnUse">
<stop stop-color="#7AF1FF"/>
<stop offset="1" stop-color="#02C7FE"/>
</radialGradient>
<radialGradient id="paint10_radial_5714_9965" cx="0" cy="0" r="1" gradientTransform="matrix(-12.4891 35.5829 -35.4287 -12.3623 103.676 200.055)" gradientUnits="userSpaceOnUse">
<stop stop-color="#7AF1FF"/>
<stop offset="1" stop-color="#02C7FE"/>
</radialGradient>
<radialGradient id="paint11_radial_5714_9965" cx="0" cy="0" r="1" gradientTransform="matrix(-29.5041 30.1942 -29.9152 -29.4352 112.892 189.196)" gradientUnits="userSpaceOnUse">
<stop stop-color="#2DE9FF"/>
<stop offset="1" stop-color="#02C7FE"/>
</radialGradient>
<radialGradient id="paint12_radial_5714_9965" cx="0" cy="0" r="1" gradientTransform="matrix(102.634 -7.27522 7.10799 102.934 194.592 153.516)" gradientUnits="userSpaceOnUse">
<stop stop-color="#2AE9FF"/>
<stop offset="0.401042" stop-color="#2AE9FF"/>
<stop offset="1" stop-color="#0EBFFF"/>
</radialGradient>
<radialGradient id="paint13_radial_5714_9965" cx="0" cy="0" r="1" gradientTransform="matrix(-85.1869 -6.03848 -5.96427 86.371 202.365 166.699)" gradientUnits="userSpaceOnUse">
<stop stop-color="#2AE9FF"/>
<stop offset="0.401042" stop-color="#2AE9FF"/>
<stop offset="1" stop-color="#0EBFFF"/>
</radialGradient>
<radialGradient id="paint14_radial_5714_9965" cx="0" cy="0" r="1" gradientTransform="matrix(17.7936 -12.057 11.9412 17.8835 187.631 221.921)" gradientUnits="userSpaceOnUse">
<stop stop-color="#896953"/>
<stop offset="0.971386" stop-color="#624735"/>
<stop offset="1" stop-color="#624735"/>
</radialGradient>
<radialGradient id="paint15_radial_5714_9965" cx="0" cy="0" r="1" gradientTransform="matrix(59.7723 -40.5024 40.1137 60.0761 177.576 235.863)" gradientUnits="userSpaceOnUse">
<stop stop-color="#5C3419"/>
<stop offset="1" stop-color="#200D00"/>
</radialGradient>
<radialGradient id="paint16_radial_5714_9965" cx="0" cy="0" r="1" gradientTransform="matrix(37.2019 -10.2517 10.0368 37.2909 186.573 198.233)" gradientUnits="userSpaceOnUse">
<stop stop-color="#896953"/>
<stop offset="0.401042" stop-color="#896953"/>
<stop offset="1" stop-color="#493527"/>
</radialGradient>
<clipPath id="clip0_5714_9965">
<rect width="355.2" height="315.733" fill="white" transform="translate(22.2002 27.1333)"/>
</clipPath>
<clipPath id="clip1_5714_9965">
<rect width="50.2686" height="57.0602" fill="white" transform="matrix(-1 0 0 1 253.626 152.189)"/>
</clipPath>
</defs>
</svg>
