<svg width="90" height="68" viewBox="0 0 90 68" fill="none" xmlns="http://www.w3.org/2000/svg">
    <path d="M1.15576 13.2546H4.42554V9.29087H9.52793V6.76439H4.42554V4.22102H10.2216V1.6937H1.15576V13.2546Z"
          fill="white"/>
    <path d="M14.7405 1H11.6025V13.2547H14.7405V1Z" fill="white"/>
    <path d="M23.0551 8.61403C23.0551 9.10919 22.9782 9.51647 22.8236 9.83587C22.6698 10.1443 22.4662 10.3699 22.2127 10.5127C21.9593 10.6555 21.6788 10.7273 21.3704 10.7273C20.8972 10.7273 20.528 10.5786 20.2635 10.2812C20.0101 9.98374 19.8833 9.48858 19.8833 8.79486V4.30297H16.7454V9.30691C16.7454 10.2431 16.905 11.0188 17.2244 11.6357C17.5548 12.2415 18.006 12.6868 18.5788 12.9733C19.1626 13.2597 19.8174 13.4025 20.5441 13.4025C21.2267 13.4025 21.8596 13.2428 22.4434 12.9234C22.7298 12.7612 22.9825 12.5584 23.203 12.3167V13.2538H26.1923V4.30297H23.0543V8.61319L23.0551 8.61403Z"
          fill="white"/>
    <path d="M32.6557 10.9759C32.3803 10.9759 32.1547 10.888 31.9789 10.7114C31.8032 10.5238 31.7145 10.2711 31.7145 9.95175V6.97912H33.7625V4.63432H31.7145V2.30556H28.5765V4.63432H27.272V6.97912H28.5765V9.9847C28.5765 11.1296 28.8959 11.9881 29.5346 12.561C30.1734 13.1229 31.0648 13.4035 32.2096 13.4035C32.6278 13.4035 33.03 13.3595 33.4153 13.2717C33.8006 13.1948 34.125 13.068 34.3895 12.8914L33.613 10.6945C33.3485 10.8821 33.0292 10.975 32.6549 10.975L32.6557 10.9759Z"
          fill="white"/>
    <path d="M39.8642 10.9759C39.5888 10.9759 39.3632 10.888 39.1874 10.7114C39.0117 10.5238 38.923 10.2711 38.923 9.95175V6.97912H40.971V4.63432H38.923V2.30556H35.785V4.63432H34.4805V6.97912H35.785V9.9847C35.785 11.1296 36.1044 11.9881 36.7431 12.561C37.3819 13.1229 38.2733 13.4035 39.4181 13.4035C39.8363 13.4035 40.2385 13.3595 40.6238 13.2717C41.0091 13.1948 41.3335 13.068 41.598 12.8914L40.8215 10.6945C40.557 10.8821 40.2377 10.975 39.8634 10.975L39.8642 10.9759Z"
          fill="white"/>
    <path d="M49.3206 4.69931C48.594 4.33597 47.7905 4.1543 46.9093 4.1543C45.9731 4.1543 45.1316 4.35287 44.383 4.74916C43.6344 5.13447 43.0455 5.67948 42.6163 6.38419C42.1981 7.07791 41.9885 7.8705 41.9885 8.76279C41.9885 9.65509 42.2031 10.4527 42.6324 11.1575C43.0725 11.8512 43.6834 12.4013 44.4658 12.8094C45.2583 13.2057 46.1835 13.4042 47.2405 13.4042C48.0989 13.4042 48.8424 13.2834 49.4702 13.0409C50.0979 12.7874 50.626 12.4241 51.0552 11.9509L49.4034 10.2331C49.095 10.4975 48.7816 10.6953 48.4622 10.8279C48.1538 10.9487 47.7795 11.0096 47.3393 11.0096C46.8662 11.0096 46.4589 10.9268 46.1176 10.762C45.7762 10.5862 45.5118 10.3378 45.3251 10.0184C45.2499 9.88154 45.1941 9.73113 45.151 9.57228H51.65C51.661 9.45145 51.672 9.31879 51.683 9.17599C51.694 9.03318 51.6999 8.90644 51.6999 8.79575C51.6999 7.80459 51.4853 6.96215 51.0561 6.26927C50.6269 5.57555 50.0489 5.05251 49.3223 4.70015L49.3206 4.69931ZM45.9351 6.63176C46.2215 6.46699 46.5519 6.38419 46.9262 6.38419C47.3004 6.38419 47.6249 6.46699 47.9003 6.63176C48.1868 6.79653 48.4064 7.02806 48.5611 7.32549C48.6599 7.50293 48.7233 7.70319 48.7588 7.92035H45.1037C45.1409 7.70995 45.2017 7.51561 45.2913 7.34239C45.445 7.03397 45.6605 6.79738 45.9351 6.63261V6.63176Z"
          fill="white"/>
    <path d="M56.9767 4.66635C56.6438 4.8514 56.3641 5.09222 56.1343 5.38458V4.30301H53.145V13.2538H56.283V9.14134C56.283 8.35974 56.4815 7.79783 56.8778 7.45646C57.2741 7.10411 57.792 6.92835 58.4299 6.92835C58.5507 6.92835 58.6614 6.93427 58.7603 6.94525C58.8701 6.94525 58.9968 6.95624 59.1405 6.9782V4.1543C58.293 4.1543 57.5715 4.32498 56.9775 4.66635H56.9767Z"
          fill="white"/>
    <path d="M3.73141 20.8023C4.13865 20.406 4.61771 20.0975 5.16775 19.877C5.72961 19.6565 6.33456 19.5466 6.9843 19.5466C7.63403 19.5466 8.20095 19.6624 8.75099 19.8931C9.30187 20.1136 9.79699 20.455 10.2372 20.9172L11.3102 19.877C10.7821 19.2821 10.1375 18.8368 9.37791 18.5394C8.62932 18.231 7.80892 18.0772 6.91754 18.0772C6.02617 18.0772 5.22181 18.2259 4.47323 18.5234C3.73562 18.8098 3.09181 19.2221 2.54093 19.7621C1.99005 20.2902 1.56084 20.9129 1.25244 21.6286C0.944054 22.3443 0.790283 23.1318 0.790283 23.9903C0.790283 24.8488 0.944054 25.6364 1.25244 26.352C1.56084 27.0677 1.98498 27.6956 2.52403 28.2347C3.07407 28.7628 3.71873 29.176 4.45633 29.4734C5.20492 29.7598 6.01941 29.9026 6.90065 29.9026C7.78189 29.9026 8.62932 29.7489 9.37791 29.4404C10.1375 29.132 10.7813 28.6808 11.3102 28.0859L10.2372 27.0458C9.79699 27.519 9.30102 27.8713 8.75099 28.1028C8.20011 28.3234 7.61122 28.4332 6.9843 28.4332C6.35738 28.4332 5.72961 28.3234 5.16775 28.1028C4.61687 27.8823 4.13865 27.5747 3.73141 27.1776C3.32416 26.7813 3.00478 26.3132 2.77328 25.7741C2.55276 25.2232 2.44292 24.6291 2.44292 23.9903C2.44292 23.3515 2.55276 22.7626 2.77328 22.2235C3.00478 21.6734 3.32416 21.1994 3.73141 20.8031V20.8023Z"
          fill="white"/>
    <path d="M19.1426 21.512C18.4599 21.1266 17.6843 20.934 16.814 20.934C15.9438 20.934 15.1512 21.1266 14.4694 21.512C13.7867 21.8863 13.2477 22.4093 12.8514 23.0811C12.4551 23.7528 12.2566 24.5234 12.2566 25.3929C12.2566 26.2624 12.4551 27.022 12.8514 27.7048C13.2477 28.3765 13.7876 28.9046 14.4694 29.29C15.1521 29.6753 15.9336 29.8679 16.814 29.8679C17.6944 29.8679 18.4599 29.6753 19.1426 29.29C19.8362 28.9046 20.3753 28.3757 20.7606 27.7048C21.1568 27.033 21.3554 26.2624 21.3554 25.3929C21.3554 24.5234 21.1568 23.741 20.7606 23.0811C20.3753 22.4093 19.8354 21.8863 19.1426 21.512ZM19.3732 27.0288C19.1198 27.491 18.7674 27.8493 18.3163 28.1019C17.8761 28.3554 17.375 28.4822 16.8132 28.4822C16.2513 28.4822 15.7511 28.3554 15.3101 28.1019C14.8699 27.8484 14.5176 27.491 14.2531 27.0288C13.9886 26.5556 13.8568 26.0106 13.8568 25.3938C13.8568 24.7769 13.9886 24.2269 14.2531 23.7756C14.5176 23.3134 14.8699 22.9552 15.3101 22.7025C15.7503 22.449 16.2513 22.3223 16.8132 22.3223C17.375 22.3223 17.8752 22.449 18.3163 22.7025C18.7674 22.956 19.1198 23.3134 19.3732 23.7756C19.6267 24.2269 19.7534 24.7668 19.7534 25.3938C19.7534 26.0207 19.6267 26.5556 19.3732 27.0288Z"
          fill="white"/>
    <path d="M30.1035 21.3472C29.5644 21.0717 28.9367 20.934 28.221 20.934C27.4285 20.934 26.7348 21.0937 26.14 21.4131C25.6965 21.6514 25.3382 21.9606 25.067 22.34V21.0168H23.5479V29.7699H25.1329V25.2611C25.1329 24.6223 25.2427 24.0883 25.4633 23.659C25.6948 23.2298 26.0192 22.9045 26.4374 22.6848C26.8557 22.4642 27.3457 22.3544 27.9076 22.3544C28.6562 22.3544 29.2341 22.569 29.6413 22.9983C30.0595 23.4275 30.2691 24.0663 30.2691 24.9138V29.7691H31.8541V24.7322C31.8541 23.8737 31.7004 23.163 31.392 22.602C31.0836 22.0401 30.6544 21.6218 30.1035 21.3472Z"
          fill="white"/>
    <path d="M36.9348 19.1173C37.1773 18.8528 37.5296 18.721 37.9918 18.721C38.2233 18.721 38.443 18.7599 38.6525 18.8367C38.862 18.9027 39.0488 19.0015 39.2144 19.1342L39.6934 17.9284C39.4729 17.7526 39.2034 17.6259 38.884 17.5482C38.5756 17.4603 38.2512 17.4163 37.9098 17.4163C36.9846 17.4163 36.2699 17.6749 35.7629 18.1929C35.2678 18.699 35.0194 19.3818 35.0194 20.2411V21.0176H33.5332V22.3223H35.0194V29.7707H36.6044V22.3223H39.1146V21.0176H36.5715V20.258C36.5715 19.7519 36.6923 19.3716 36.9348 19.1181V19.1173Z"
          fill="white"/>
    <path d="M3.38544 33.8982H1.73364V45.4591H9.64365V44.0227H3.38544V33.8982Z" fill="white"/>
    <path d="M14.4955 36.6233C13.8018 36.6233 13.136 36.7222 12.4973 36.9207C11.8695 37.1083 11.3304 37.3829 10.8793 37.7463L11.54 38.9352C11.8813 38.6487 12.2995 38.4231 12.7947 38.2583C13.2898 38.0826 13.7967 37.9939 14.3138 37.9939C15.0953 37.9939 15.6792 38.1814 16.0644 38.5558C16.4607 38.9191 16.6593 39.4362 16.6593 40.108V40.4215H14.149C13.2796 40.4215 12.586 40.5372 12.068 40.7679C11.5619 40.9994 11.1927 41.307 10.9612 41.6932C10.7407 42.0785 10.6309 42.5077 10.6309 42.9817C10.6309 43.4558 10.7627 43.923 11.0271 44.3193C11.2916 44.7046 11.6659 45.0072 12.15 45.2277C12.6451 45.4482 13.218 45.5581 13.8677 45.5581C14.6712 45.5581 15.337 45.4094 15.8659 45.1119C16.2368 44.8956 16.5275 44.6261 16.7412 44.3067V45.4584H18.2443V40.1739C18.2443 38.974 17.9199 38.0817 17.2701 37.4987C16.6204 36.9148 15.6961 36.6233 14.4955 36.6233ZM15.6842 43.9399C15.244 44.2044 14.7261 44.3362 14.1321 44.3362C13.5382 44.3362 13.0532 44.2095 12.7119 43.956C12.3705 43.6915 12.1998 43.3451 12.1998 42.9158C12.1998 42.5415 12.3376 42.2221 12.613 41.9576C12.8884 41.6932 13.4224 41.5613 14.2149 41.5613H16.6593V42.7832C16.4607 43.2893 16.1363 43.6746 15.6851 43.9391L15.6842 43.9399Z"
          fill="white"/>
    <path d="M24.3648 44.2205C23.9246 44.2205 23.5832 44.0937 23.3407 43.8403C23.1092 43.5868 22.9943 43.2234 22.9943 42.7502V38.0108H25.5045V36.7061H22.9943V34.7906H21.4093V36.7061H19.9231V38.0108H21.4093V42.817C21.4093 43.6975 21.6518 44.3751 22.1359 44.8483C22.62 45.3215 23.3027 45.5581 24.184 45.5581C24.5473 45.5581 24.8937 45.5082 25.224 45.4094C25.5654 45.3105 25.8569 45.1559 26.0994 44.9472L25.6042 43.8073C25.2739 44.0828 24.8607 44.2205 24.3656 44.2205H24.3648Z"
          fill="white"/>
    <path d="M31.2022 36.6233C30.5086 36.6233 29.8428 36.7222 29.204 36.9207C28.5763 37.1083 28.0372 37.3829 27.586 37.7463L28.2468 38.9352C28.5881 38.6487 29.0063 38.4231 29.5015 38.2583C29.9966 38.0826 30.5035 37.9939 31.0206 37.9939C31.8021 37.9939 32.386 38.1814 32.7712 38.5558C33.1675 38.9191 33.3661 39.4362 33.3661 40.108V40.4215H30.8558C29.9864 40.4215 29.2928 40.5372 28.7748 40.7679C28.2687 40.9994 27.8995 41.307 27.668 41.6932C27.4475 42.0785 27.3376 42.5077 27.3376 42.9817C27.3376 43.4558 27.4694 43.923 27.7339 44.3193C27.9984 44.7046 28.3727 45.0072 28.8568 45.2277C29.3519 45.4482 29.9247 45.5581 30.5745 45.5581C31.378 45.5581 32.0446 45.4094 32.5727 45.1119C32.9436 44.8956 33.2342 44.6261 33.448 44.3067V45.4584H34.9511V40.1739C34.9511 38.974 34.6266 38.0817 33.9769 37.4987C33.3272 36.9148 32.4029 36.6233 31.2022 36.6233ZM32.391 43.9399C31.9508 44.2044 31.4329 44.3362 30.8389 44.3362C30.245 44.3362 29.76 44.2095 29.4187 43.956C29.0773 43.6915 28.9066 43.3451 28.9066 42.9158C28.9066 42.5415 29.0444 42.2221 29.3198 41.9576C29.5952 41.6932 30.1292 41.5613 30.9217 41.5613H33.3661V42.7832C33.1675 43.2893 32.8431 43.6746 32.3919 43.9391L32.391 43.9399Z"
          fill="white"/>
    <path d="M51.9549 38.2913C51.6575 37.7294 51.2392 37.3111 50.7002 37.0365C50.1611 36.761 49.5384 36.6233 48.8338 36.6233C47.9534 36.6233 47.1829 36.8269 46.5221 37.2342C46.0786 37.508 45.7271 37.8418 45.4618 38.2347C45.248 37.8274 44.9582 37.4987 44.5898 37.2511C43.984 36.8329 43.2633 36.6233 42.4269 36.6233C41.6673 36.6233 41.0015 36.783 40.4287 37.1024C40.0062 37.3382 39.6657 37.6432 39.4046 38.0167V36.7061H37.8855V45.4592H39.4705V40.9504C39.4705 40.3116 39.5804 39.7776 39.8009 39.3483C40.0214 38.9191 40.329 38.5938 40.7261 38.3741C41.1223 38.1536 41.5794 38.0437 42.0965 38.0437C42.8231 38.0437 43.3791 38.2583 43.7644 38.6876C44.1606 39.1168 44.3592 39.7556 44.3592 40.6031V45.4584H45.9442V40.9496C45.9442 40.3108 46.049 39.7768 46.2577 39.3475C46.4782 38.9183 46.7857 38.5929 47.1828 38.3732C47.5791 38.1527 48.0413 38.0429 48.5702 38.0429C49.2858 38.0429 49.8418 38.2575 50.238 38.6867C50.6343 39.116 50.8328 39.7548 50.8328 40.6023V45.4575H52.4179V40.4206C52.4179 39.5621 52.2641 38.8515 51.9557 38.2904L51.9549 38.2913Z"
          fill="white"/>
    <path d="M89.888 23.702H76.2056L64.2341 35.5967L71.0728 42.392L89.888 23.702Z" fill="#EEEEEE"/>
    <path d="M60.8128 32.1991L53.9707 25.4012L76.2061 3.3119H89.8885L60.8128 32.1991Z" fill="#006847"/>
    <path d="M71.074 42.392L76.2059 47.4914H89.8884L77.9169 35.5967L71.074 42.392Z" fill="#CE1126"/>
    <path d="M25.0937 52.2832H0V52.6964H25.0937V52.2832Z" fill="white"/>
    <path d="M90 52.2832H64.9062V52.6964H90V52.2832Z" fill="white"/>
    <path d="M26.8506 52.0524C26.8506 51.8597 26.8832 51.6715 26.9484 51.4877C27.0166 51.301 27.1144 51.132 27.2419 50.9808C27.3723 50.8267 27.5309 50.7052 27.7176 50.6162C27.9043 50.5244 28.1163 50.4784 28.3534 50.4784C28.635 50.4784 28.8766 50.5436 29.0782 50.674C29.2797 50.8015 29.4294 50.966 29.5272 51.1676L29.2116 51.3721C29.1493 51.2387 29.0693 51.1335 28.9715 51.0564C28.8766 50.9764 28.7729 50.9201 28.6602 50.8875C28.5505 50.8549 28.4423 50.8386 28.3356 50.8386C28.1608 50.8386 28.0051 50.8741 27.8688 50.9453C27.7354 51.0164 27.6228 51.1113 27.5309 51.2298C27.439 51.3484 27.3693 51.4818 27.3219 51.63C27.2774 51.7752 27.2552 51.922 27.2552 52.0702C27.2552 52.2332 27.2819 52.3903 27.3352 52.5415C27.3915 52.6927 27.4686 52.826 27.5664 52.9416C27.6643 53.0572 27.7799 53.1491 27.9132 53.2173C28.0466 53.2855 28.1919 53.3196 28.349 53.3196C28.4587 53.3196 28.5713 53.3003 28.6869 53.2618C28.8025 53.2232 28.9107 53.164 29.0115 53.0839C29.1123 53.0009 29.1923 52.8942 29.2516 52.7638L29.585 52.9461C29.5198 53.1032 29.419 53.2366 29.2827 53.3463C29.1463 53.4559 28.9937 53.5389 28.8247 53.5952C28.6587 53.6516 28.4942 53.6797 28.3312 53.6797C28.1148 53.6797 27.9162 53.6338 27.7354 53.5419C27.5546 53.447 27.3975 53.3225 27.2641 53.1684C27.1337 53.0113 27.0314 52.8364 26.9573 52.6437C26.8862 52.4481 26.8506 52.251 26.8506 52.0524Z"
          fill="white"/>
    <path d="M31.3886 53.6753C31.1367 53.6753 30.9247 53.6323 30.7528 53.5463C30.5809 53.4574 30.443 53.3388 30.3393 53.1906C30.2356 53.0395 30.16 52.869 30.1125 52.6793C30.0651 52.4896 30.0414 52.294 30.0414 52.0924V50.4962H30.4416V52.0924C30.4416 52.2465 30.4564 52.3977 30.486 52.5459C30.5186 52.6912 30.5705 52.8216 30.6416 52.9372C30.7128 53.0528 30.8091 53.1447 30.9307 53.2129C31.0522 53.281 31.2034 53.3151 31.3842 53.3151C31.568 53.3151 31.7206 53.281 31.8421 53.2129C31.9637 53.1417 32.06 53.0484 32.1311 52.9327C32.2023 52.8142 32.2527 52.6823 32.2823 52.537C32.3149 52.3918 32.3312 52.2436 32.3312 52.0924V50.4962H32.7314V52.0924C32.7314 52.3058 32.7062 52.5089 32.6558 52.7015C32.6084 52.8913 32.5313 53.0587 32.4246 53.204C32.3179 53.3492 32.1786 53.4648 32.0067 53.5508C31.8377 53.6338 31.6317 53.6753 31.3886 53.6753Z"
          fill="white"/>
    <path d="M34.2724 50.4962H34.6103L35.8997 53.653H35.4729L35.0994 52.7282H33.7744L33.4054 53.653H32.9785L34.2724 50.4962ZM35.0105 52.417L34.4414 50.9586L33.8545 52.417H35.0105Z"
          fill="white"/>
    <path d="M36.3211 53.653V50.4962H37.6727C37.812 50.4962 37.9395 50.5258 38.0551 50.5851C38.1707 50.6414 38.2715 50.7185 38.3574 50.8163C38.4434 50.9112 38.5101 51.0194 38.5575 51.1409C38.6049 51.2595 38.6287 51.381 38.6287 51.5055C38.6287 51.6507 38.6005 51.7886 38.5442 51.919C38.4908 52.0494 38.4138 52.1606 38.313 52.2525C38.2152 52.3444 38.0996 52.4081 37.9662 52.4437L38.7309 53.653H38.2774L37.5571 52.5192H36.7212V53.653H36.3211ZM36.7212 52.1635H37.6772C37.7868 52.1635 37.8817 52.1339 37.9617 52.0746C38.0447 52.0124 38.1084 51.9309 38.1529 51.8301C38.2003 51.7293 38.2241 51.6211 38.2241 51.5055C38.2241 51.3869 38.1974 51.2787 38.144 51.1809C38.0907 51.0801 38.021 51.0001 37.935 50.9408C37.8491 50.8815 37.7542 50.8519 37.6505 50.8519H36.7212V52.1635Z"
          fill="white"/>
    <path d="M41.4937 50.8519H40.4044V53.653H40.0042V50.8519H38.9149V50.4962H41.4937V50.8519Z" fill="white"/>
    <path d="M42.6091 50.4962H42.9471L44.2365 53.653H43.8096L43.4361 52.7282H42.1112L41.7421 53.653H41.3153L42.6091 50.4962ZM43.3472 52.417L42.7781 50.9586L42.1912 52.417H43.3472Z"
          fill="white"/>
    <path d="M47.7865 53.2973V53.653H45.6434V50.4962H47.7465V50.8519H46.0436V51.8745H47.5242V52.208H46.0436V53.2973H47.7865Z"
          fill="white"/>
    <path d="M48.3355 53.653V50.4962H49.4293C49.7672 50.4962 50.0488 50.5673 50.2741 50.7096C50.5023 50.8489 50.6728 51.0386 50.7854 51.2787C50.898 51.5159 50.9544 51.7797 50.9544 52.0702C50.9544 52.3903 50.8921 52.6689 50.7676 52.9061C50.6431 53.1432 50.4667 53.327 50.2385 53.4574C50.0103 53.5878 49.7405 53.653 49.4293 53.653H48.3355ZM50.5497 52.0702C50.5497 51.833 50.5053 51.6226 50.4164 51.4388C50.3304 51.255 50.2044 51.1113 50.0384 51.0075C49.8724 50.9038 49.6694 50.8519 49.4293 50.8519H48.7357V53.2973H49.4293C49.6723 53.2973 49.8769 53.244 50.0429 53.1373C50.2089 53.0276 50.3348 52.8809 50.4208 52.6971C50.5068 52.5104 50.5497 52.3014 50.5497 52.0702Z"
          fill="white"/>
    <path d="M51.5182 53.653V50.4962H51.9184V53.653H51.5182Z" fill="white"/>
    <path d="M52.4687 52.0524C52.4687 51.8597 52.5013 51.6715 52.5665 51.4877C52.6347 51.301 52.7325 51.132 52.86 50.9808C52.9904 50.8267 53.149 50.7052 53.3357 50.6162C53.5225 50.5244 53.7344 50.4784 53.9715 50.4784C54.2531 50.4784 54.4947 50.5436 54.6963 50.674C54.8978 50.8015 55.0475 50.966 55.1453 51.1676L54.8297 51.3721C54.7674 51.2387 54.6874 51.1335 54.5896 51.0564C54.4947 50.9764 54.391 50.9201 54.2783 50.8875C54.1686 50.8549 54.0604 50.8386 53.9537 50.8386C53.7789 50.8386 53.6232 50.8741 53.4869 50.9453C53.3535 51.0164 53.2409 51.1113 53.149 51.2298C53.0571 51.3484 52.9874 51.4818 52.94 51.63C52.8955 51.7752 52.8733 51.922 52.8733 52.0702C52.8733 52.2332 52.9 52.3903 52.9533 52.5415C53.0096 52.6927 53.0867 52.826 53.1845 52.9416C53.2824 53.0572 53.398 53.1491 53.5313 53.2173C53.6647 53.2855 53.81 53.3196 53.9671 53.3196C54.0768 53.3196 54.1894 53.3003 54.305 53.2618C54.4206 53.2232 54.5288 53.164 54.6296 53.0839C54.7304 53.0009 54.8104 52.8942 54.8697 52.7638L55.2031 52.9461C55.1379 53.1032 55.0371 53.2366 54.9008 53.3463C54.7644 53.4559 54.6118 53.5389 54.4428 53.5952C54.2768 53.6516 54.1123 53.6797 53.9493 53.6797C53.7329 53.6797 53.5343 53.6338 53.3535 53.5419C53.1727 53.447 53.0156 53.3225 52.8822 53.1684C52.7518 53.0113 52.6495 52.8364 52.5754 52.6437C52.5043 52.4481 52.4687 52.251 52.4687 52.0524Z"
          fill="white"/>
    <path d="M55.704 53.653V50.4962H56.1041V53.653H55.704Z" fill="white"/>
    <path d="M58.1395 53.6753C57.9172 53.6753 57.7156 53.6308 57.5348 53.5419C57.354 53.453 57.1969 53.3329 57.0635 53.1817C56.9331 53.0276 56.8323 52.8557 56.7611 52.666C56.69 52.4733 56.6544 52.2762 56.6544 52.0746C56.6544 51.8642 56.6915 51.6641 56.7656 51.4744C56.8426 51.2817 56.9479 51.1113 57.0813 50.9631C57.2176 50.8119 57.3762 50.6933 57.557 50.6074C57.7378 50.5184 57.9349 50.474 58.1484 50.474C58.3707 50.474 58.5722 50.5199 58.7531 50.6118C58.9339 50.7037 59.0895 50.8267 59.2199 50.9808C59.3503 51.135 59.4511 51.3069 59.5223 51.4966C59.5934 51.6863 59.629 51.8805 59.629 52.0791C59.629 52.2895 59.5919 52.4911 59.5178 52.6838C59.4437 52.8735 59.3385 53.0439 59.2021 53.1951C59.0687 53.3433 58.9116 53.4604 58.7308 53.5463C58.55 53.6323 58.3529 53.6753 58.1395 53.6753ZM57.059 52.0746C57.059 52.2347 57.0842 52.3903 57.1346 52.5415C57.188 52.6897 57.2621 52.8216 57.3569 52.9372C57.4518 53.0528 57.5659 53.1447 57.6993 53.2129C57.8327 53.281 57.9809 53.3151 58.1439 53.3151C58.3129 53.3151 58.4641 53.2796 58.5974 53.2084C58.7308 53.1373 58.8435 53.0424 58.9354 52.9239C59.0302 52.8053 59.1013 52.6719 59.1488 52.5237C59.1992 52.3755 59.2244 52.2258 59.2244 52.0746C59.2244 51.9146 59.1977 51.7604 59.1443 51.6122C59.0939 51.464 59.0198 51.3321 58.922 51.2165C58.8272 51.0979 58.713 51.006 58.5797 50.9408C58.4492 50.8726 58.304 50.8386 58.1439 50.8386C57.975 50.8386 57.8238 50.8741 57.6904 50.9453C57.557 51.0134 57.4429 51.1068 57.348 51.2254C57.2562 51.344 57.185 51.4773 57.1346 51.6255C57.0842 51.7708 57.059 51.9205 57.059 52.0746ZM58.2862 50.1183L58.0283 50.0293L58.2862 49.5803H58.6775L58.2862 50.1183Z"
          fill="white"/>
    <path d="M60.5851 51.2343V53.653H60.185V50.4962H60.5229L62.4526 52.9639V50.5006H62.8527V53.653H62.4881L60.5851 51.2343Z"
          fill="white"/>
    <path d="M0 61.3087C0 60.8558 0.0805826 60.4134 0.241748 59.9814C0.40992 59.5425 0.651668 59.1453 0.966991 58.79C1.28231 58.4277 1.66771 58.142 2.12318 57.933C2.57864 57.717 3.09717 57.609 3.67877 57.609C4.36547 57.609 4.95758 57.7588 5.45509 58.0584C5.95961 58.358 6.33449 58.7482 6.57974 59.2289L5.4656 59.9919C5.33947 59.7132 5.1748 59.4937 4.97159 59.3334C4.76839 59.1662 4.55116 59.0513 4.31993 58.9886C4.08869 58.9189 3.86096 58.884 3.63673 58.884C3.27235 58.884 2.95353 58.9572 2.68025 59.1035C2.41397 59.2498 2.18974 59.4414 2.00756 59.6783C1.82537 59.9152 1.68873 60.18 1.59764 60.4726C1.51355 60.7652 1.47151 61.0579 1.47151 61.3505C1.47151 61.678 1.52406 61.995 1.62917 62.3016C1.73428 62.6012 1.88143 62.8694 2.07062 63.1063C2.26682 63.3362 2.49806 63.5208 2.76433 63.6602C3.03761 63.7926 3.33542 63.8588 3.65775 63.8588C3.88899 63.8588 4.12373 63.8204 4.36197 63.7438C4.60021 63.6672 4.82094 63.5452 5.02415 63.378C5.22736 63.2108 5.38502 62.9948 5.49713 62.73L6.68485 63.4094C6.5377 63.7786 6.29595 64.0922 5.95961 64.35C5.63027 64.6078 5.25889 64.8028 4.84547 64.9352C4.43204 65.0676 4.02212 65.1338 3.61571 65.1338C3.08316 65.1338 2.59616 65.0258 2.15471 64.8098C1.71326 64.5869 1.33136 64.2942 1.00903 63.9319C0.693711 63.5627 0.444956 63.1516 0.262769 62.6987C0.0875898 62.2388 0 61.7755 0 61.3087Z"
          fill="white"/>
    <path d="M9.58352 57.6508H11.055L13.7983 65.0711H12.3058L11.6121 63.2212H9.00543L8.32223 65.0711H6.8297L9.58352 57.6508ZM11.3493 62.2075L10.3193 59.1453L9.24718 62.2075H11.3493Z"
          fill="white"/>
    <path d="M16.0674 60.3054V65.0711H14.6169V57.6508H15.7731L19.6305 62.5419V57.6613H21.081V65.0711H19.8723L16.0674 60.3054Z"
          fill="white"/>
    <path d="M22.1814 61.3087C22.1814 60.8558 22.262 60.4134 22.4232 59.9814C22.5913 59.5425 22.8331 59.1453 23.1484 58.79C23.4637 58.4277 23.8491 58.142 24.3046 57.933C24.7601 57.717 25.2786 57.609 25.8602 57.609C26.5469 57.609 27.139 57.7588 27.6365 58.0584C28.141 58.358 28.5159 58.7482 28.7612 59.2289L27.647 59.9919C27.5209 59.7132 27.3562 59.4937 27.153 59.3334C26.9498 59.1662 26.7326 59.0513 26.5014 58.9886C26.2701 58.9189 26.0424 58.884 25.8181 58.884C25.4538 58.884 25.1349 58.9572 24.8617 59.1035C24.5954 59.2498 24.3712 59.4414 24.189 59.6783C24.0068 59.9152 23.8702 60.18 23.7791 60.4726C23.695 60.7652 23.6529 61.0579 23.6529 61.3505C23.6529 61.678 23.7055 61.995 23.8106 62.3016C23.9157 62.6012 24.0629 62.8694 24.252 63.1063C24.4482 63.3362 24.6795 63.5208 24.9458 63.6602C25.219 63.7926 25.5168 63.8588 25.8392 63.8588C26.0704 63.8588 26.3051 63.8204 26.5434 63.7438C26.7816 63.6672 27.0024 63.5452 27.2056 63.378C27.4088 63.2108 27.5664 62.9948 27.6786 62.73L28.8663 63.4094C28.7191 63.7786 28.4774 64.0922 28.141 64.35C27.8117 64.6078 27.4403 64.8028 27.0269 64.9352C26.6135 65.0676 26.2035 65.1338 25.7971 65.1338C25.2646 65.1338 24.7776 65.0258 24.3361 64.8098C23.8947 64.5869 23.5128 64.2942 23.1905 63.9319C22.8751 63.5627 22.6264 63.1516 22.4442 62.6987C22.269 62.2388 22.1814 61.7755 22.1814 61.3087Z"
          fill="white"/>
    <path d="M33.0028 65.1233C32.4071 65.1233 31.8991 65.0258 31.4787 64.8307C31.0653 64.6287 30.7289 64.3535 30.4697 64.0051C30.2174 63.6567 30.0317 63.2631 29.9126 62.8241C29.7935 62.3782 29.7339 61.9149 29.7339 61.4341V57.6508H31.1844V61.4341C31.1844 61.7407 31.2124 62.0403 31.2685 62.3329C31.3315 62.6186 31.4331 62.8764 31.5733 63.1063C31.7134 63.3362 31.8991 63.5174 32.1304 63.6497C32.3616 63.7821 32.6489 63.8483 32.9922 63.8483C33.3426 63.8483 33.6334 63.7821 33.8646 63.6497C34.1029 63.5104 34.2886 63.3258 34.4217 63.0958C34.5619 62.8659 34.6635 62.6081 34.7265 62.3225C34.7896 62.0298 34.8211 61.7337 34.8211 61.4341V57.6508H36.2611V61.4341C36.2611 61.9427 36.198 62.42 36.0719 62.8659C35.9528 63.3118 35.7601 63.7055 35.4938 64.0469C35.2345 64.3813 34.8982 64.6461 34.4848 64.8412C34.0714 65.0293 33.5773 65.1233 33.0028 65.1233ZM33.4652 57.0237L32.5613 56.752L33.1289 55.5083H34.4427L33.4652 57.0237Z"
          fill="white"/>
    <path d="M39.1726 60.3054V65.0711H37.7221V57.6508H38.8783L42.7357 62.5419V57.6613H44.1862V65.0711H42.9775L39.1726 60.3054Z"
          fill="white"/>
    <path d="M45.7281 66.273L46.0119 65.0293H45.5704V63.5661H46.7897V65.0293L46.3587 66.273H45.7281Z" fill="white"/>
    <path d="M56.7923 65.0711V60.2009L54.8794 63.8274H54.07L52.1571 60.2009V65.0711H50.7066V57.6508H52.2622L54.4694 61.8731L56.6977 57.6508H58.2428V65.0711H56.7923Z"
          fill="white"/>
    <path d="M64.9827 63.8065V65.0711H59.8009V57.6508H64.8881V58.9154H61.2514V60.7025H64.3941V61.8731H61.2514V63.8065H64.9827ZM62.9121 57.0237L62.0081 56.752L62.5757 55.5083H63.8896L62.9121 57.0237Z"
          fill="white"/>
    <path d="M66.8913 57.6508L68.7412 60.389L70.5806 57.6508H72.1572L69.5715 61.4132L72.0731 65.0711H70.4965L68.7412 62.4374L66.9754 65.0711H65.3882L67.8898 61.4132L65.3042 57.6508H66.8913Z"
          fill="white"/>
    <path d="M72.9085 65.0711V57.6508H74.359V65.0711H72.9085Z" fill="white"/>
    <path d="M75.4641 61.3087C75.4641 60.8558 75.5446 60.4134 75.7058 59.9814C75.874 59.5425 76.1157 59.1453 76.431 58.79C76.7464 58.4277 77.1318 58.142 77.5872 57.933C78.0427 57.717 78.5612 57.609 79.1428 57.609C79.8295 57.609 80.4216 57.7588 80.9191 58.0584C81.4237 58.358 81.7985 58.7482 82.0438 59.2289L80.9297 59.9919C80.8035 59.7132 80.6389 59.4937 80.4356 59.3334C80.2324 59.1662 80.0152 59.0513 79.784 58.9886C79.5527 58.9189 79.325 58.884 79.1008 58.884C78.7364 58.884 78.4176 58.9572 78.1443 59.1035C77.878 59.2498 77.6538 59.4414 77.4716 59.6783C77.2894 59.9152 77.1528 60.18 77.0617 60.4726C76.9776 60.7652 76.9356 61.0579 76.9356 61.3505C76.9356 61.678 76.9881 61.995 77.0932 62.3016C77.1983 62.6012 77.3455 62.8694 77.5347 63.1063C77.7309 63.3362 77.9621 63.5208 78.2284 63.6602C78.5017 63.7926 78.7995 63.8588 79.1218 63.8588C79.353 63.8588 79.5878 63.8204 79.826 63.7438C80.0643 63.6672 80.285 63.5452 80.4882 63.378C80.6914 63.2108 80.8491 62.9948 80.9612 62.73L82.1489 63.4094C82.0017 63.7786 81.76 64.0922 81.4237 64.35C81.0943 64.6078 80.7229 64.8028 80.3095 64.9352C79.8961 65.0676 79.4862 65.1338 79.0798 65.1338C78.5472 65.1338 78.0602 65.0258 77.6188 64.8098C77.1773 64.5869 76.7954 64.2942 76.4731 63.9319C76.1578 63.5627 75.909 63.1516 75.7268 62.6987C75.5516 62.2388 75.4641 61.7755 75.4641 61.3087Z"
          fill="white"/>
    <path d="M86.214 65.1233C85.6675 65.1233 85.17 65.0188 84.7215 64.8098C84.28 64.6008 83.8982 64.3186 83.5758 63.9633C83.2605 63.601 83.0152 63.1969 82.8401 62.7509C82.6649 62.2981 82.5773 61.8347 82.5773 61.361C82.5773 60.8663 82.6684 60.396 82.8506 59.9501C83.0398 59.4972 83.2955 59.0965 83.6179 58.7482C83.9472 58.3928 84.3326 58.1141 84.774 57.9121C85.2225 57.7031 85.713 57.5986 86.2456 57.5986C86.7851 57.5986 87.2756 57.7066 87.7171 57.9225C88.1655 58.1385 88.5474 58.4277 88.8627 58.79C89.1781 59.1523 89.4233 59.5564 89.5985 60.0023C89.7737 60.4482 89.8613 60.9081 89.8613 61.3819C89.8613 61.8696 89.7702 62.3399 89.588 62.7928C89.4058 63.2387 89.15 63.6393 88.8207 63.9946C88.4984 64.343 88.113 64.6182 87.6645 64.8203C87.2231 65.0223 86.7396 65.1233 86.214 65.1233ZM84.0488 61.361C84.0488 61.6815 84.0979 61.9915 84.196 62.2911C84.2941 62.5907 84.4342 62.8589 84.6164 63.0958C84.8056 63.3258 85.0333 63.5104 85.2996 63.6497C85.5729 63.7821 85.8812 63.8483 86.2245 63.8483C86.5749 63.8483 86.8867 63.7786 87.16 63.6393C87.4333 63.493 87.661 63.3014 87.8432 63.0645C88.0254 62.8206 88.162 62.5524 88.2531 62.2597C88.3512 61.9601 88.4003 61.6606 88.4003 61.361C88.4003 61.0405 88.3477 60.7339 88.2426 60.4413C88.1445 60.1417 88.0009 59.8769 87.8117 59.647C87.6295 59.4101 87.4017 59.2254 87.1285 59.0931C86.8622 58.9537 86.5609 58.884 86.2245 58.884C85.8672 58.884 85.5518 58.9572 85.2786 59.1035C85.0123 59.2429 84.7881 59.431 84.6059 59.6679C84.4237 59.9048 84.2835 60.1695 84.1854 60.4622C84.0944 60.7548 84.0488 61.0544 84.0488 61.361Z"
          fill="white"/>
</svg>
