<svg width="3455" height="2911" viewBox="0 0 3455 2911" fill="none" xmlns="http://www.w3.org/2000/svg">
<path d="M496.952 39.6622V182.655H198.363V337.129H421.783V475.947H198.363V772.37H19.8363V39.6622H496.952Z" fill="white"/>
<path d="M769.309 0V772.37H590.783V0H769.309Z" fill="white"/>
<path d="M1473.94 189.961V772.37H1295.41V693.046C1277.32 718.791 1252.61 739.666 1221.29 755.67C1190.66 770.978 1156.56 778.632 1118.97 778.632C1074.43 778.632 1035.1 768.891 1001 749.408C966.895 729.229 940.446 700.352 921.654 662.777C902.862 625.202 893.466 581.017 893.466 530.222V189.961H1070.95V506.215C1070.95 545.182 1081.04 575.45 1101.23 597.021C1121.41 618.592 1148.55 629.377 1182.66 629.377C1217.46 629.377 1244.95 618.592 1265.14 597.021C1285.32 575.45 1295.41 545.182 1295.41 506.215V189.961H1473.94Z" fill="white"/>
<path d="M1926.86 621.027V772.37H1836.03C1771.3 772.37 1720.84 756.714 1684.65 725.402C1648.46 693.393 1630.36 641.554 1630.36 569.884V338.173H1559.37V189.961H1630.36V48.0122H1808.89V189.961H1925.82V338.173H1808.89V571.971C1808.89 589.367 1813.06 601.892 1821.42 609.546C1829.77 617.2 1843.69 621.027 1863.18 621.027H1926.86Z" fill="white"/>
<path d="M2350.99 621.027V772.37H2260.16C2195.44 772.37 2144.97 756.714 2108.78 725.402C2072.59 693.393 2054.49 641.554 2054.49 569.884V338.173H1983.5V189.961H2054.49V48.0122H2233.02V189.961H2349.95V338.173H2233.02V571.971C2233.02 589.367 2237.2 601.892 2245.55 609.546C2253.9 617.2 2267.82 621.027 2287.31 621.027H2350.99Z" fill="white"/>
<path d="M2999.59 471.772C2999.59 488.472 2998.54 505.868 2996.46 523.959H2592.42C2595.21 560.142 2606.69 587.975 2626.88 607.459C2647.76 626.246 2673.16 635.64 2703.09 635.64C2747.63 635.64 2778.61 616.852 2796.01 579.278H2986.02C2976.27 617.548 2958.52 651.992 2932.77 682.608C2907.72 713.225 2876.05 737.231 2837.77 754.626C2799.49 772.022 2756.68 780.72 2709.35 780.72C2652.28 780.72 2601.47 768.543 2556.93 744.189C2512.38 719.835 2477.58 685.043 2452.52 639.815C2427.47 594.586 2414.94 541.703 2414.94 481.166C2414.94 420.628 2427.12 367.746 2451.48 322.517C2476.54 277.288 2511.34 242.496 2555.88 218.142C2600.43 193.788 2651.58 181.611 2709.35 181.611C2765.73 181.611 2815.84 193.44 2859.69 217.099C2903.54 240.757 2937.64 274.504 2962 318.342C2987.06 362.179 2999.59 413.322 2999.59 471.772ZM2816.89 424.803C2816.89 394.187 2806.45 369.833 2785.57 351.741C2764.69 333.65 2738.58 324.604 2707.26 324.604C2677.34 324.604 2651.93 333.302 2631.05 350.698C2610.87 368.093 2598.34 392.795 2593.47 424.803H2816.89Z" fill="white"/>
<path d="M3272.3 287.029C3293.18 255.021 3319.28 229.971 3350.6 211.88C3381.92 193.093 3416.72 183.699 3455 183.699V372.616H3405.93C3361.39 372.616 3327.98 382.358 3305.71 401.841C3283.43 420.629 3272.3 454.028 3272.3 502.041V772.37H3093.77V189.961H3272.3V287.029Z" fill="white"/>
<path d="M0 1472.72C0 1401.75 16.0082 1338.08 48.0247 1281.72C80.0412 1224.66 123.542 1180.13 178.527 1148.12C234.208 1116.11 295.805 1100.11 363.318 1100.11C442.663 1100.11 511.916 1119.24 571.077 1157.51C630.238 1195.78 673.39 1250.06 700.535 1320.34H586.737C566.553 1276.5 537.32 1242.75 499.04 1219.09C461.455 1195.43 416.214 1183.6 363.318 1183.6C312.509 1183.6 266.92 1195.43 226.552 1219.09C186.183 1242.75 154.514 1276.5 131.546 1320.34C108.578 1363.48 97.0935 1414.27 97.0935 1472.72C97.0935 1530.48 108.578 1581.27 131.546 1625.11C154.514 1668.25 186.183 1701.65 226.552 1725.31C266.92 1748.97 312.509 1760.79 363.318 1760.79C416.214 1760.79 461.455 1749.31 499.04 1726.35C537.32 1702.69 566.553 1668.95 586.737 1625.11H700.535C673.39 1694.69 630.238 1748.62 571.077 1786.89C511.916 1824.46 442.663 1843.25 363.318 1843.25C295.805 1843.25 234.208 1827.59 178.527 1796.28C123.542 1764.27 80.0412 1720.09 48.0247 1663.73C16.0082 1607.36 0 1543.7 0 1472.72Z" fill="white"/>
<path d="M1091.48 1846.38C1037.89 1846.38 989.165 1834.2 945.316 1809.85C902.163 1785.5 868.059 1751.05 843.002 1706.52C818.642 1661.29 806.462 1609.1 806.462 1549.96C806.462 1491.51 818.99 1440.02 844.046 1395.48C869.799 1350.26 904.599 1315.81 948.448 1292.15C992.297 1267.8 1041.37 1255.62 1095.65 1255.62C1149.94 1255.62 1199.01 1267.8 1242.86 1292.15C1286.71 1315.81 1321.16 1349.91 1346.22 1394.44C1371.97 1438.97 1384.85 1490.81 1384.85 1549.96C1384.85 1609.1 1371.62 1661.29 1345.17 1706.52C1319.42 1751.05 1284.27 1785.5 1239.73 1809.85C1195.18 1834.2 1145.77 1846.38 1091.48 1846.38ZM1091.48 1762.88C1125.58 1762.88 1157.6 1754.88 1187.53 1738.88C1217.46 1722.87 1241.47 1698.87 1259.56 1666.86C1278.36 1634.85 1287.75 1595.88 1287.75 1549.96C1287.75 1504.03 1278.71 1465.07 1260.61 1433.06C1242.51 1401.05 1218.85 1377.39 1189.62 1362.08C1160.38 1346.08 1128.71 1338.08 1094.61 1338.08C1059.81 1338.08 1027.79 1346.08 998.561 1362.08C970.024 1377.39 947.056 1401.05 929.656 1433.06C912.255 1465.07 903.555 1504.03 903.555 1549.96C903.555 1596.58 911.907 1635.89 928.612 1667.9C946.012 1699.91 968.98 1723.92 997.517 1739.92C1026.05 1755.23 1057.37 1762.88 1091.48 1762.88Z" fill="white"/>
<path d="M1788.51 1254.58C1858.12 1254.58 1914.49 1275.8 1957.64 1318.25C2000.8 1360 2022.37 1420.53 2022.37 1499.86V1836.99H1928.41V1513.43C1928.41 1456.37 1914.14 1412.88 1885.61 1382.96C1857.07 1352.34 1818.09 1337.04 1768.68 1337.04C1718.56 1337.04 1678.54 1352.69 1648.62 1384C1619.38 1415.32 1604.77 1460.89 1604.77 1520.73V1836.99H1509.76V1265.02H1604.77V1346.43C1623.56 1317.2 1648.96 1294.59 1680.98 1278.59C1713.69 1262.58 1749.54 1254.58 1788.51 1254.58Z" fill="white"/>
<path d="M2410.38 1343.3H2290.32V1836.99H2195.31V1343.3H2121.19V1265.02H2195.31V1224.31C2195.31 1160.29 2211.67 1113.67 2244.38 1084.45C2277.79 1054.53 2331.04 1039.57 2404.12 1039.57V1118.89C2362.36 1118.89 2332.78 1127.24 2315.38 1143.94C2298.67 1159.95 2290.32 1186.74 2290.32 1224.31V1265.02H2410.38V1343.3Z" fill="white"/>
<path d="M130.502 2824.37H385.242V2901.61H35.4966V2174.12H130.502V2824.37Z" fill="white"/>
<path d="M450.64 2613.53C450.64 2555.08 462.472 2503.94 486.136 2460.1C509.801 2415.57 542.165 2381.13 583.23 2356.77C624.99 2332.42 671.275 2320.24 722.084 2320.24C772.197 2320.24 815.698 2331.03 852.586 2352.6C889.475 2374.17 916.967 2401.31 935.063 2434.01V2329.64H1031.11V2901.61H935.063V2795.14C916.271 2828.54 888.083 2856.38 850.498 2878.64C813.609 2900.21 770.457 2911 721.04 2911C670.231 2911 624.294 2898.48 583.23 2873.43C542.165 2848.38 509.801 2813.24 486.136 2768.01C462.472 2722.78 450.64 2671.29 450.64 2613.53ZM935.063 2614.58C935.063 2571.44 926.363 2533.86 908.963 2501.85C891.563 2469.84 867.898 2445.49 837.97 2428.79C808.737 2411.39 776.373 2402.7 740.876 2402.7C705.38 2402.7 673.015 2411.05 643.783 2427.75C614.55 2444.45 591.234 2468.8 573.834 2500.81C556.433 2532.82 547.733 2570.39 547.733 2613.53C547.733 2657.37 556.433 2695.64 573.834 2728.34C591.234 2760.35 614.55 2785.05 643.783 2802.45C673.015 2819.15 705.38 2827.5 740.876 2827.5C776.373 2827.5 808.737 2819.15 837.97 2802.45C867.898 2785.05 891.563 2760.35 908.963 2728.34C926.363 2695.64 935.063 2657.72 935.063 2614.58Z" fill="white"/>
<path d="M1307.55 2407.92V2745.04C1307.55 2772.88 1313.46 2792.71 1325.3 2804.54C1337.13 2815.67 1357.66 2821.24 1386.89 2821.24H1456.84V2901.61H1371.23C1318.34 2901.61 1278.66 2889.43 1252.22 2865.08C1225.77 2840.72 1212.54 2800.71 1212.54 2745.04V2407.92H1138.42V2329.64H1212.54V2185.6H1307.55V2329.64H1456.84V2407.92H1307.55Z" fill="white"/>
<path d="M1536.46 2613.53C1536.46 2555.08 1548.29 2503.94 1571.95 2460.1C1595.62 2415.57 1627.98 2381.13 1669.05 2356.77C1710.81 2332.42 1757.09 2320.24 1807.9 2320.24C1858.01 2320.24 1901.51 2331.03 1938.4 2352.6C1975.29 2374.17 2002.78 2401.31 2020.88 2434.01V2329.64H2116.93V2901.61H2020.88V2795.14C2002.09 2828.54 1973.9 2856.38 1936.32 2878.64C1899.43 2900.21 1856.27 2911 1806.86 2911C1756.05 2911 1710.11 2898.48 1669.05 2873.43C1627.98 2848.38 1595.62 2813.24 1571.95 2768.01C1548.29 2722.78 1536.46 2671.29 1536.46 2613.53ZM2020.88 2614.58C2020.88 2571.44 2012.18 2533.86 1994.78 2501.85C1977.38 2469.84 1953.72 2445.49 1923.79 2428.79C1894.55 2411.39 1862.19 2402.7 1826.69 2402.7C1791.2 2402.7 1758.83 2411.05 1729.6 2427.75C1700.37 2444.45 1677.05 2468.8 1659.65 2500.81C1642.25 2532.82 1633.55 2570.39 1633.55 2613.53C1633.55 2657.37 1642.25 2695.64 1659.65 2728.34C1677.05 2760.35 1700.37 2785.05 1729.6 2802.45C1758.83 2819.15 1791.2 2827.5 1826.69 2827.5C1862.19 2827.5 1894.55 2819.15 1923.79 2802.45C1953.72 2785.05 1977.38 2760.35 1994.78 2728.34C2012.18 2695.64 2020.88 2657.72 2020.88 2614.58Z" fill="white"/>
<path d="M2965.49 2319.2C3010.03 2319.2 3049.7 2328.59 3084.5 2347.38C3119.31 2365.47 3146.8 2392.96 3166.98 2429.83C3187.17 2466.71 3197.26 2511.59 3197.26 2564.48V2901.61H3103.3V2578.05C3103.3 2520.99 3089.03 2477.5 3060.49 2447.58C3032.65 2416.96 2994.72 2401.65 2946.69 2401.65C2897.28 2401.65 2857.95 2417.66 2828.72 2449.67C2799.49 2480.98 2784.87 2526.55 2784.87 2586.4V2901.61H2690.91V2578.05C2690.91 2520.99 2676.64 2477.5 2648.11 2447.58C2620.27 2416.96 2582.33 2401.65 2534.31 2401.65C2484.89 2401.65 2445.57 2417.66 2416.33 2449.67C2387.1 2480.98 2372.49 2526.55 2372.49 2586.4V2901.61H2277.48V2329.64H2372.49V2412.09C2391.28 2382.17 2416.33 2359.21 2447.66 2343.2C2479.67 2327.2 2514.82 2319.2 2553.1 2319.2C2601.13 2319.2 2643.58 2329.98 2680.47 2351.55C2717.36 2373.12 2744.85 2404.78 2762.95 2446.53C2778.96 2406.18 2805.4 2374.86 2842.29 2352.6C2879.18 2330.33 2920.25 2319.2 2965.49 2319.2Z" fill="white"/>
</svg>
