<svg width="3023" height="3741" viewBox="0 0 3023 3741" fill="none" xmlns="http://www.w3.org/2000/svg">
<path d="M1876.36 3740.3H1874.38L868.111 2733.94L1442.53 2157.28L3023 3740.3H1876.36Z" fill="url(#paint0_linear_20_16)"/>
<path d="M1874.39 1725.38L865.912 2731.74L1442.53 3306.21L3023 1725.38H1874.39Z" fill="url(#paint1_linear_20_16)"/>
<path d="M1874.39 2.20018L1872.19 0L0 1870.15L576.616 2446.82L3020.8 2.20018H1874.39Z" fill="url(#paint2_linear_20_16)"/>
<rect x="866" y="2730.57" width="811.156" height="817.009" transform="rotate(-45 866 2730.57)" fill="url(#paint3_radial_20_16)"/>
<path d="M1439 3295L2015 2719L2295 3031L1439 3295Z" fill="url(#paint4_linear_20_16)"/>
<defs>
<linearGradient id="paint0_linear_20_16" x1="2063" y1="3359" x2="868" y2="3375" gradientUnits="userSpaceOnUse">
<stop stop-color="#A81D22"/>
<stop offset="1" stop-color="#C5292F"/>
</linearGradient>
<linearGradient id="paint1_linear_20_16" x1="1138" y1="2097" x2="2802" y2="2353" gradientUnits="userSpaceOnUse">
<stop stop-color="#F1F5F4"/>
<stop offset="1" stop-color="#B0B1B5"/>
</linearGradient>
<linearGradient id="paint2_linear_20_16" x1="3021" y1="-9.47976e-05" x2="3.98388e-05" y2="1921" gradientUnits="userSpaceOnUse">
<stop stop-color="#1B6D41"/>
<stop offset="1" stop-color="#67AD57"/>
</linearGradient>
<radialGradient id="paint3_radial_20_16" cx="0" cy="0" r="1" gradientUnits="userSpaceOnUse" gradientTransform="translate(635.182 2667.24) rotate(41.4542) scale(1875.59 1876.57)">
<stop stop-color="#FBFBF6"/>
<stop offset="1" stop-color="#AFA8AB"/>
</radialGradient>
<linearGradient id="paint4_linear_20_16" x1="1439" y1="3295" x2="2231" y2="3055" gradientUnits="userSpaceOnUse">
<stop stop-color="#882006"/>
<stop offset="1" stop-color="#484546" stop-opacity="0"/>
</linearGradient>
</defs>
</svg>
