<svg width="20" height="16" viewBox="0 0 20 16" fill="none" xmlns="http://www.w3.org/2000/svg">
    <path d="M19.5306 6.28068L15.0306 10.7807C14.8899 10.9214 14.699 11.0005 14.5 11.0005C14.301 11.0005 14.1101 10.9214 13.9694 10.7807C13.8286 10.6399 13.7496 10.4491 13.7496 10.2501C13.7496 10.051 13.8286 9.86016 13.9694 9.71943L17.1897 6.50005H10C7.81273 6.50253 5.71575 7.37252 4.16911 8.91916C2.62247 10.4658 1.75248 12.5628 1.75 14.7501C1.75 14.949 1.67098 15.1397 1.53033 15.2804C1.38968 15.421 1.19891 15.5001 1 15.5001C0.801088 15.5001 0.610322 15.421 0.46967 15.2804C0.329018 15.1397 0.25 14.949 0.25 14.7501C0.25273 12.165 1.28084 9.68666 3.10872 7.85878C4.93661 6.03089 7.41498 5.00278 10 5.00005H17.1897L13.9694 1.78068C13.8997 1.71099 13.8444 1.62827 13.8067 1.53722C13.769 1.44618 13.7496 1.3486 13.7496 1.25005C13.7496 1.1515 13.769 1.05392 13.8067 0.962878C13.8444 0.871834 13.8997 0.789108 13.9694 0.719426C14.1101 0.578695 14.301 0.499634 14.5 0.499634C14.5985 0.499634 14.6961 0.519044 14.7872 0.556756C14.8782 0.594468 14.9609 0.649743 15.0306 0.719426L19.5306 5.21943C19.6004 5.28908 19.6557 5.3718 19.6934 5.46285C19.7312 5.55389 19.7506 5.65149 19.7506 5.75005C19.7506 5.84861 19.7312 5.94621 19.6934 6.03726C19.6557 6.1283 19.6004 6.21102 19.5306 6.28068Z"
          fill="white"/>
</svg>
