<svg width="25" height="24" viewBox="0 0 25 24" fill="none" xmlns="http://www.w3.org/2000/svg">
<path d="M19.5 4H1.5C1.23478 4 0.98043 4.10536 0.792893 4.29289C0.605357 4.48043 0.5 4.73478 0.5 5V23C0.5 23.2652 0.605357 23.5196 0.792893 23.7071C0.98043 23.8946 1.23478 24 1.5 24H19.5C19.7652 24 20.0196 23.8946 20.2071 23.7071C20.3946 23.5196 20.5 23.2652 20.5 23V5C20.5 4.73478 20.3946 4.48043 20.2071 4.29289C20.0196 4.10536 19.7652 4 19.5 4ZM18.5 22H2.5V6H18.5V22ZM24.5 1V19C24.5 19.2652 24.3946 19.5196 24.2071 19.7071C24.0196 19.8946 23.7652 20 23.5 20C23.2348 20 22.9804 19.8946 22.7929 19.7071C22.6054 19.5196 22.5 19.2652 22.5 19V2H5.5C5.23478 2 4.98043 1.89464 4.79289 1.70711C4.60536 1.51957 4.5 1.26522 4.5 1C4.5 0.734784 4.60536 0.48043 4.79289 0.292893C4.98043 0.105357 5.23478 0 5.5 0H23.5C23.7652 0 24.0196 0.105357 24.2071 0.292893C24.3946 0.48043 24.5 0.734784 24.5 1Z" fill="white"/>
</svg>
