<svg width="26" height="26" viewBox="0 0 26 26" fill="none" xmlns="http://www.w3.org/2000/svg">
    <path d="M0.4 12.8C0.505058 12.8788 0.624606 12.9361 0.751819 12.9687C0.879032 13.0013 1.01142 13.0085 1.14142 12.9899C1.27142 12.9714 1.39649 12.9274 1.50949 12.8605C1.62249 12.7935 1.72121 12.705 1.8 12.6C2.40546 11.7927 3.19055 11.1375 4.09311 10.6862C4.99567 10.2349 5.99091 9.99998 7 9.99998C8.00909 9.99998 9.00433 10.2349 9.90689 10.6862C10.8094 11.1375 11.5945 11.7927 12.2 12.6C12.3593 12.812 12.5963 12.952 12.8588 12.9893C13.1214 13.0265 13.388 12.958 13.6 12.7987C13.6756 12.7425 13.7425 12.6756 13.7987 12.6C14.4042 11.7927 15.1893 11.1375 16.0919 10.6862C16.9944 10.2349 17.9897 9.99998 18.9988 9.99998C20.0078 9.99998 21.0031 10.2349 21.9056 10.6862C22.8082 11.1375 23.5933 11.7927 24.1987 12.6C24.358 12.8122 24.5951 12.9524 24.8578 12.9897C25.1204 13.0271 25.3872 12.9587 25.5994 12.7994C25.8115 12.6401 25.9518 12.403 25.9891 12.1403C26.0265 11.8777 25.958 11.6109 25.7987 11.3987C24.9136 10.2121 23.7332 9.27777 22.375 8.68873C23.1196 8.00891 23.6413 7.11985 23.8716 6.13823C24.1019 5.15661 24.03 4.1283 23.6654 3.18826C23.3009 2.24821 22.6606 1.44035 21.8287 0.870698C20.9967 0.301045 20.012 -0.00378418 19.0037 -0.00378418C17.9955 -0.00378418 17.0108 0.301045 16.1788 0.870698C15.3469 1.44035 14.7066 2.24821 14.3421 3.18826C13.9775 4.1283 13.9056 5.15661 14.1359 6.13823C14.3662 7.11985 14.8879 8.00891 15.6325 8.68873C14.6518 9.11279 13.7609 9.71987 13.0075 10.4775C12.2541 9.71987 11.3632 9.11279 10.3825 8.68873C11.1271 8.00891 11.6488 7.11985 11.8791 6.13823C12.1094 5.15661 12.0375 4.1283 11.6729 3.18826C11.3084 2.24821 10.6681 1.44035 9.83616 0.870698C9.00423 0.301045 8.01952 -0.00378418 7.01125 -0.00378418C6.00298 -0.00378418 5.01827 0.301045 4.18634 0.870698C3.35442 1.44035 2.71415 2.24821 2.34957 3.18826C1.98499 4.1283 1.91313 5.15661 2.14342 6.13823C2.37371 7.11985 2.89539 8.00891 3.64 8.68873C2.27581 9.27585 1.08963 10.2107 0.2 11.4C0.121207 11.505 0.0638779 11.6246 0.0312863 11.7518C-0.00130532 11.879 -0.00852115 12.0114 0.0100506 12.1414C0.0286223 12.2714 0.072618 12.3965 0.139526 12.5095C0.206433 12.6225 0.294943 12.7212 0.4 12.8ZM19 1.99998C19.5933 1.99998 20.1734 2.17593 20.6667 2.50557C21.1601 2.83522 21.5446 3.30375 21.7716 3.85193C21.9987 4.40011 22.0581 5.00331 21.9424 5.58525C21.8266 6.1672 21.5409 6.70174 21.1213 7.1213C20.7018 7.54086 20.1672 7.82658 19.5853 7.94234C19.0033 8.05809 18.4001 7.99868 17.8519 7.77162C17.3038 7.54456 16.8352 7.16004 16.5056 6.66669C16.1759 6.17334 16 5.59333 16 4.99998C16 4.20433 16.3161 3.44127 16.8787 2.87866C17.4413 2.31605 18.2044 1.99998 19 1.99998ZM7 1.99998C7.59334 1.99998 8.17336 2.17593 8.66671 2.50557C9.16006 2.83522 9.54458 3.30375 9.77164 3.85193C9.9987 4.40011 10.0581 5.00331 9.94236 5.58525C9.8266 6.1672 9.54088 6.70174 9.12132 7.1213C8.70176 7.54086 8.16721 7.82658 7.58527 7.94234C7.00333 8.05809 6.40013 7.99868 5.85195 7.77162C5.30377 7.54456 4.83524 7.16004 4.50559 6.66669C4.17595 6.17334 4 5.59333 4 4.99998C4 4.20433 4.31607 3.44127 4.87868 2.87866C5.44129 2.31605 6.20435 1.99998 7 1.99998ZM22.375 21.6887C23.1196 21.0089 23.6413 20.1198 23.8716 19.1382C24.1019 18.1566 24.03 17.1283 23.6654 16.1883C23.3009 15.2482 22.6606 14.4404 21.8287 13.8707C20.9967 13.301 20.012 12.9962 19.0037 12.9962C17.9955 12.9962 17.0108 13.301 16.1788 13.8707C15.3469 14.4404 14.7066 15.2482 14.3421 16.1883C13.9775 17.1283 13.9056 18.1566 14.1359 19.1382C14.3662 20.1198 14.8879 21.0089 15.6325 21.6887C14.6518 22.1128 13.7609 22.7199 13.0075 23.4775C12.2541 22.7199 11.3632 22.1128 10.3825 21.6887C11.1271 21.0089 11.6488 20.1198 11.8791 19.1382C12.1094 18.1566 12.0375 17.1283 11.6729 16.1883C11.3084 15.2482 10.6681 14.4404 9.83616 13.8707C9.00423 13.301 8.01952 12.9962 7.01125 12.9962C6.00298 12.9962 5.01827 13.301 4.18634 13.8707C3.35442 14.4404 2.71415 15.2482 2.34957 16.1883C1.98499 17.1283 1.91313 18.1566 2.14342 19.1382C2.37371 20.1198 2.89539 21.0089 3.64 21.6887C2.27581 22.2758 1.08963 23.2107 0.2 24.4C0.121207 24.505 0.0638779 24.6246 0.0312863 24.7518C-0.00130532 24.879 -0.00852115 25.0114 0.0100506 25.1414C0.0286223 25.2714 0.072618 25.3965 0.139526 25.5095C0.206433 25.6225 0.294943 25.7212 0.4 25.8C0.505058 25.8788 0.624606 25.9361 0.751819 25.9687C0.879032 26.0013 1.01142 26.0085 1.14142 25.9899C1.27142 25.9714 1.39649 25.9274 1.50949 25.8605C1.62249 25.7935 1.72121 25.705 1.8 25.6C2.40546 24.7927 3.19055 24.1375 4.09311 23.6862C4.99567 23.2349 5.99091 23 7 23C8.00909 23 9.00433 23.2349 9.90689 23.6862C10.8094 24.1375 11.5945 24.7927 12.2 25.6C12.3593 25.812 12.5963 25.952 12.8588 25.9893C13.1214 26.0265 13.388 25.958 13.6 25.7987C13.6756 25.7425 13.7425 25.6756 13.7987 25.6C14.4042 24.7927 15.1893 24.1375 16.0919 23.6862C16.9944 23.2349 17.9897 23 18.9988 23C20.0078 23 21.0031 23.2349 21.9056 23.6862C22.8082 24.1375 23.5933 24.7927 24.1987 25.6C24.358 25.8122 24.5951 25.9524 24.8578 25.9897C25.1204 26.0271 25.3872 25.9587 25.5994 25.7994C25.8115 25.6401 25.9518 25.403 25.9891 25.1403C26.0265 24.8777 25.958 24.6109 25.7987 24.3987C24.9136 23.2121 23.7332 22.2778 22.375 21.6887ZM7 15C7.59334 15 8.17336 15.1759 8.66671 15.5056C9.16006 15.8352 9.54458 16.3038 9.77164 16.8519C9.9987 17.4001 10.0581 18.0033 9.94236 18.5853C9.8266 19.1672 9.54088 19.7017 9.12132 20.1213C8.70176 20.5409 8.16721 20.8266 7.58527 20.9423C7.00333 21.0581 6.40013 20.9987 5.85195 20.7716C5.30377 20.5446 4.83524 20.16 4.50559 19.6667C4.17595 19.1733 4 18.5933 4 18C4 17.2043 4.31607 16.4413 4.87868 15.8787C5.44129 15.3161 6.20435 15 7 15ZM19 15C19.5933 15 20.1734 15.1759 20.6667 15.5056C21.1601 15.8352 21.5446 16.3038 21.7716 16.8519C21.9987 17.4001 22.0581 18.0033 21.9424 18.5853C21.8266 19.1672 21.5409 19.7017 21.1213 20.1213C20.7018 20.5409 20.1672 20.8266 19.5853 20.9423C19.0033 21.0581 18.4001 20.9987 17.8519 20.7716C17.3038 20.5446 16.8352 20.16 16.5056 19.6667C16.1759 19.1733 16 18.5933 16 18C16 17.2043 16.3161 16.4413 16.8787 15.8787C17.4413 15.3161 18.2044 15 19 15Z"
          fill="white"/>
</svg>
