<svg width="20" height="20" viewBox="0 0 20 20" fill="none" xmlns="http://www.w3.org/2000/svg">
    <path d="M10 0C8.02219 0 6.08879 0.58649 4.4443 1.6853C2.79981 2.78412 1.51809 4.3459 0.761209 6.17317C0.00433284 8.00043 -0.193701 10.0111 0.192152 11.9509C0.578004 13.8907 1.53041 15.6725 2.92894 17.0711C4.32746 18.4696 6.10929 19.422 8.0491 19.8079C9.98891 20.1937 11.9996 19.9957 13.8268 19.2388C15.6541 18.4819 17.2159 17.2002 18.3147 15.5557C19.4135 13.9112 20 11.9778 20 10C19.9974 7.34865 18.9429 4.80665 17.0681 2.93186C15.1934 1.05707 12.6514 0.00264738 10 0ZM15.939 7.713V8.359C15.939 8.40844 15.9291 8.45739 15.9099 8.50294C15.8907 8.5485 15.8625 8.58974 15.8271 8.62423C15.7917 8.65872 15.7497 8.68576 15.7037 8.70376C15.6576 8.72175 15.6084 8.73034 15.559 8.729C14.5032 8.65441 13.493 8.26887 12.656 7.621V12.349C12.6558 12.8723 12.5513 13.3903 12.3487 13.8727C12.1461 14.3552 11.8494 14.7924 11.476 15.159C11.0995 15.5351 10.6517 15.8324 10.1589 16.0333C9.66611 16.2342 9.13817 16.3347 8.606 16.329C7.53587 16.3274 6.50876 15.9076 5.744 15.159C5.2574 14.6684 4.9069 14.0596 4.727 13.3924C4.5471 12.7252 4.544 12.0227 4.718 11.354C4.877 10.712 5.198 10.122 5.651 9.641C5.98883 9.22809 6.41468 8.8959 6.8974 8.66872C7.38012 8.44155 7.90751 8.32514 8.441 8.328H9.261V10.031C9.26137 10.0805 9.25118 10.1294 9.23113 10.1746C9.21107 10.2199 9.18161 10.2603 9.14471 10.2932C9.1078 10.3261 9.0643 10.3508 9.01711 10.3656C8.96991 10.3804 8.9201 10.385 8.87101 10.379C8.3949 10.236 7.88186 10.2834 7.44004 10.5113C6.99822 10.7392 6.66214 11.1297 6.50265 11.6006C6.34315 12.0714 6.37269 12.5858 6.58505 13.0353C6.79742 13.4847 7.176 13.8342 7.641 14.01C7.911 14.165 8.213 14.256 8.523 14.277C8.763 14.287 9.00301 14.257 9.231 14.185C9.61163 14.0566 9.9427 13.8126 10.1781 13.4871C10.4134 13.1616 10.5414 12.7707 10.544 12.369V3.754C10.544 3.6587 10.5818 3.56728 10.6491 3.49979C10.7164 3.43231 10.8077 3.39426 10.903 3.394H12.318C12.4099 3.39411 12.4984 3.4294 12.5651 3.49262C12.6319 3.55584 12.6719 3.6422 12.677 3.734C12.7286 4.17523 12.8687 4.6015 13.089 4.98727C13.3093 5.37303 13.6052 5.71035 13.959 5.979C14.4371 6.33789 15.0049 6.55796 15.6 6.615C15.6891 6.62262 15.7725 6.66228 15.8346 6.72663C15.8968 6.79098 15.9335 6.87566 15.938 6.965L15.939 7.713Z"
          fill="white"/>
</svg>
