<svg width="20" height="20" viewBox="0 0 20 20" fill="none" xmlns="http://www.w3.org/2000/svg">
    <path d="M2.85714 0C1.28125 0 0 1.28125 0 2.85714V17.1429C0 18.7188 1.28125 20 2.85714 20H17.1429C18.7188 20 20 18.7188 20 17.1429V2.85714C20 1.28125 18.7188 0 17.1429 0H2.85714ZM16.1205 3.75L11.4866 9.04464L16.9375 16.25H12.6696L9.33036 11.8795L5.50446 16.25H3.38393L8.33929 10.5848L3.11161 3.75H7.48661L10.5089 7.74554L14 3.75H16.1205ZM14.433 14.9821L6.84821 4.95089H5.58482L13.2545 14.9821H14.4286H14.433Z"
          fill="white"/>
</svg>
