<svg width="34" height="24" viewBox="0 0 34 24" fill="none" xmlns="http://www.w3.org/2000/svg">
    <g clip-path="url(#clip0_2108_352)">
        <path d="M33.2491 3.74333C33.0541 3.01981 32.6737 2.36019 32.1457 1.83017C31.6178 1.30015 30.9608 0.918215 30.2401 0.7224C27.6016 0 16.9828 0 16.9828 0C16.9828 0 6.36334 0.0218666 3.72488 0.744267C3.00418 0.940093 2.34715 1.32205 1.81922 1.85209C1.29129 2.38214 0.910883 3.04178 0.715885 3.76533C-0.0821854 8.47173 -0.391771 15.6432 0.737799 20.1613C0.932817 20.8849 1.31323 21.5445 1.84116 22.0745C2.36909 22.6045 3.02611 22.9865 3.7468 23.1823C6.38525 23.9047 17.0044 23.9047 17.0044 23.9047C17.0044 23.9047 27.6234 23.9047 30.2617 23.1823C30.9825 22.9865 31.6395 22.6045 32.1675 22.0745C32.6954 21.5445 33.0759 20.8849 33.2709 20.1613C34.1126 15.4483 34.372 8.2812 33.2491 3.74333Z"
              fill="#FF0000"/>
        <path d="M13.603 17.0749L22.4122 11.9525L13.603 6.83008V17.0749Z" fill="white"/>
    </g>
    <defs>
        <clipPath id="clip0_2108_352">
            <rect width="34" height="24" fill="white"/>
        </clipPath>
    </defs>
</svg>
